<svg width="24" height="24" viewBox="0 0 24 24" fill="none" xmlns="http://www.w3.org/2000/svg">
<path fill-rule="evenodd" clip-rule="evenodd" d="M7.12004 2.41696C7.18041 2.3821 7.25762 2.40279 7.29247 2.46316L8.27692 4.16835C9.12913 3.39884 10.2804 2.88141 11.5683 2.75719C11.5683 2.75719 11.9349 2.71876 12.1706 2.71877C12.4062 2.71877 12.7727 2.75719 12.7727 2.75719C14.0608 2.88145 15.212 3.39894 16.0642 4.16848L17.0488 2.46316C17.0837 2.40278 17.1609 2.3821 17.2212 2.41696C17.2816 2.45182 17.3023 2.52902 17.2674 2.58939L16.2524 4.3474C17.0629 5.15869 17.5586 6.214 17.5747 7.36982H6.76634C6.78244 6.2139 7.27821 5.15855 8.0887 4.34727L7.07383 2.58939C7.03898 2.52901 7.05966 2.45181 7.12004 2.41696ZM6.72393 8.01932C6.72393 7.97287 6.72738 7.92692 6.73133 7.88147H17.6116C17.6155 7.92675 17.6172 7.97287 17.6172 8.01932V15.8083C17.6172 16.6459 16.9541 17.3208 16.131 17.3208H16.0724V20.4017C16.0724 21.0635 15.5358 21.6 14.8739 21.6C14.2122 21.6 13.6756 21.0635 13.6756 20.4017V17.3208H10.6657V20.4017C10.6657 21.0635 10.1291 21.6 9.46725 21.6C8.80546 21.6 8.2689 21.0635 8.2689 20.4017V17.3208H8.21008C7.38697 17.3208 6.72393 16.646 6.72393 15.8083V8.01932ZM4.79841 8.57465C5.46019 8.57465 5.99675 9.11121 5.99675 9.77308V14.914C5.99675 15.5759 5.46019 16.1125 4.79841 16.1125C4.13654 16.1125 3.59998 15.5759 3.59998 14.9141V9.77316C3.59989 9.1113 4.13645 8.57465 4.79841 8.57465ZM19.5429 8.57465C20.2047 8.57465 20.7412 9.11121 20.7412 9.77308V14.914C20.7412 15.5759 20.2047 16.1125 19.5429 16.1125C18.881 16.1125 18.3444 15.5759 18.3444 14.9141V9.77316C18.3444 9.1113 18.881 8.57465 19.5429 8.57465ZM10.5607 5.22575C10.5617 5.56018 10.2849 5.83208 9.94238 5.83301C9.60004 5.83385 9.32166 5.56355 9.32065 5.22912V5.22575C9.31973 4.89124 9.59651 4.61943 9.93893 4.6185C10.2813 4.61758 10.5596 4.88779 10.5607 5.22239V5.22575ZM15.1888 5.22575C15.1898 5.56018 14.913 5.83208 14.5705 5.83301C14.2282 5.83385 13.9498 5.56355 13.9488 5.22912V5.22575C13.9478 4.89124 14.2246 4.61943 14.567 4.6185C14.9094 4.61758 15.1878 4.88779 15.1888 5.22239V5.22575Z" fill="white"/>
</svg>
