<svg width="24" height="24" viewBox="0 0 24 24" fill="none" xmlns="http://www.w3.org/2000/svg">
<path d="M17.3386 12.6049C17.3164 10.2017 19.3635 9.03255 19.4571 8.97812C18.2977 7.33549 16.5008 7.11106 15.8693 7.09316C14.3601 6.93882 12.8961 7.97077 12.1273 7.97077C11.3432 7.97077 10.1593 7.10808 8.88329 7.13343C7.24132 7.15803 5.70524 8.08187 4.86277 9.51647C3.12413 12.4416 4.42082 16.7401 6.08657 19.1045C6.91983 20.2625 7.8935 21.5554 9.16794 21.5099C10.4148 21.46 10.8805 20.7375 12.3851 20.7375C13.8759 20.7375 14.3133 21.5099 15.613 21.4809C16.9512 21.46 17.7936 20.3177 18.5977 19.1493C19.5607 17.8221 19.9474 16.515 19.9627 16.4479C19.9313 16.4374 17.364 15.4852 17.3386 12.6049Z" fill="white"/>
<path d="M14.8834 5.53778C15.554 4.7228 16.0128 3.61405 15.8854 2.48889C14.9148 2.53065 13.701 3.14132 13.002 3.9384C12.3836 4.64078 11.8312 5.79204 11.9739 6.87469C13.0642 6.95373 14.1836 6.34008 14.8834 5.53778Z" fill="white"/>
</svg>
