<svg width="48" height="48" viewBox="0 0 48 48" fill="none" xmlns="http://www.w3.org/2000/svg">
<rect x="1" y="1" width="46" height="46" rx="11" fill="url(#paint0_linear_73_4470)"/>
<path fill-rule="evenodd" clip-rule="evenodd" d="M26.5305 7.00533C29.694 6.89866 32.6508 8.39832 35 10.9772L30.8717 13.3679C30.8717 13.3679 29.6502 9.3207 26.023 9.68463C25.1648 9.77248 24.3942 10.2494 23.7866 10.8517C21.7131 12.8973 21.1618 16.2292 20.9237 18.99C20.5855 22.9055 20.5541 26.8899 21.0052 30.799C21.3247 33.5913 21.8759 36.4902 23.204 39H18.1799C15.7555 35.7122 14.1769 31.1504 14.014 26.0742C13.682 15.7774 19.2887 7.2375 26.5305 7.00533ZM22.0952 26.5762H30.9783C30.9971 26.5762 31.0096 26.5636 31.0096 26.5448V23.3007C31.0096 23.2819 30.9971 23.2694 30.9783 23.2694H22.0952C22.0765 23.2694 22.0639 23.2819 22.0639 23.3007V26.5448C22.0639 26.5636 22.0765 26.5762 22.0952 26.5762Z" fill="url(#paint1_linear_73_4470)"/>
<rect x="1" y="1" width="46" height="46" rx="11" stroke="url(#paint2_linear_73_4470)" stroke-width="2"/>
<defs>
<linearGradient id="paint0_linear_73_4470" x1="45.9554" y1="-1.59682e-06" x2="-0.0584983" y2="47.9439" gradientUnits="userSpaceOnUse">
<stop stop-color="#432221"/>
<stop offset="1" stop-color="#161616"/>
</linearGradient>
<linearGradient id="paint1_linear_73_4470" x1="24.5" y1="7" x2="24.5" y2="39" gradientUnits="userSpaceOnUse">
<stop stop-color="#FAD127"/>
<stop offset="1" stop-color="#FF544F"/>
</linearGradient>
<linearGradient id="paint2_linear_73_4470" x1="24" y1="0" x2="24" y2="48" gradientUnits="userSpaceOnUse">
<stop stop-color="#FAD127"/>
<stop offset="1" stop-color="#FF544F"/>
</linearGradient>
</defs>
</svg>
