<svg width="24" height="24" viewBox="0 0 24 24" fill="none" xmlns="http://www.w3.org/2000/svg">
<path d="M10.8877 7.32431C10.8798 7.26854 10.9632 7.23268 11.0148 7.20878C11.0824 7.18089 11.1698 7.16894 11.2334 7.20479C11.2493 7.21276 11.2651 7.23268 11.2572 7.24862C11.2413 7.29643 11.1618 7.28846 11.1181 7.31236C11.0784 7.33228 11.0466 7.38009 10.999 7.38009C10.9592 7.38407 10.8917 7.36415 10.8877 7.32431ZM11.869 7.31236C11.9088 7.33228 11.9406 7.38009 11.9882 7.38009C12.0319 7.38009 12.0995 7.36415 12.1035 7.32033C12.1114 7.26455 12.028 7.2287 11.9763 7.20479C11.9088 7.1769 11.8214 7.16495 11.7578 7.20081C11.7419 7.20878 11.726 7.2287 11.734 7.24463C11.7459 7.29643 11.8253 7.28846 11.869 7.31236ZM20.3992 19.6709C20.3793 19.9976 20.1409 20.2207 19.8469 20.3999C19.2549 20.7585 18.365 21.0294 17.8246 21.6828L17.7213 21.5952L17.8246 21.6828C17.2605 22.3561 16.5652 22.7426 15.9057 22.7944C15.2501 22.8461 14.6343 22.5434 14.3045 21.878V21.874C14.2608 21.7904 14.229 21.6987 14.2052 21.6071C13.351 21.6549 12.608 21.396 12.0161 21.4438C11.142 21.4916 10.5937 21.7027 10.0971 21.7067C9.90636 22.129 9.52892 22.4079 9.06805 22.5115C8.43236 22.6589 7.63378 22.5115 6.84712 22.0971L6.91069 21.9776L6.84712 22.0971C6.1121 21.7067 5.17844 21.7426 4.4911 21.5991C4.14544 21.5274 3.84349 21.3999 3.69252 21.1091C3.54551 20.8183 3.57333 20.4199 3.77992 19.8462C3.84747 19.643 3.79582 19.3402 3.74814 19.0175C3.7243 18.8621 3.70046 18.7027 3.70046 18.5474C3.70046 18.376 3.72827 18.2087 3.81171 18.0533C3.99049 17.7147 4.28053 17.5713 4.54672 17.4757C4.81292 17.38 5.05527 17.3163 5.22214 17.145C5.42874 16.9259 5.62342 16.5713 5.88167 16.3402C5.77837 15.6549 5.88961 14.9299 6.12799 14.2167C6.6286 12.7068 7.68543 11.2605 8.43634 10.3641C9.076 9.45179 9.26273 8.71873 9.33027 7.78646C9.37397 6.51954 8.35687 2.39207 12.4253 2.40004C15.6395 2.40402 15.4567 5.80241 15.4368 7.63109C15.4249 8.83028 16.0845 9.64303 16.7638 10.4996C17.3677 11.2167 18.1584 12.2645 18.6113 13.4637C18.9808 14.4438 19.1238 15.5275 18.7583 16.6151C18.8139 16.635 18.8696 16.6629 18.9212 16.6948C18.9768 16.7267 19.0285 16.7665 19.0801 16.8103C19.3424 17.0334 19.4258 17.38 19.4973 17.7027C19.5728 18.0255 19.6403 18.3282 19.7834 18.4876C20.2244 18.9816 20.4151 19.3442 20.3992 19.6709ZM11.869 6.74663C12.0121 6.78248 12.2227 6.84224 12.3855 6.92193C12.3021 6.43587 12.5643 5.98568 12.8544 6.0056C13.208 6.01755 13.4066 6.62312 13.2159 7.09324C13.1841 7.16894 13.1047 7.2287 13.061 7.27651C13.3272 7.36814 13.498 7.43985 13.5616 7.47172C13.8754 7.09324 13.9907 6.4279 13.7324 5.86217C13.3431 5.00958 12.3736 4.99365 11.9843 5.87811C11.8571 6.16496 11.8293 6.47173 11.869 6.74663ZM10.0335 7.49563C10.3434 7.26854 10.3076 7.30838 10.2679 7.27651C9.95007 7.00161 10.0057 6.18488 10.3394 6.15699C10.5897 6.13707 10.7685 6.58328 10.7208 6.93786C10.844 6.8542 10.987 6.79444 11.1261 6.7546C11.1936 5.98568 10.7685 5.41994 10.3672 5.41994C9.61633 5.41994 9.41371 6.91396 10.0335 7.49563ZM9.66003 8.32829C9.71963 8.52351 9.90239 8.74662 10.2441 8.93785C10.554 9.12112 10.7208 9.39602 11.0387 9.53546C11.142 9.57928 11.2651 9.61116 11.4201 9.61912C12.1511 9.66295 12.4968 9.16893 12.9378 9.0255C13.4026 8.87809 13.7364 8.58726 13.8397 8.30439C13.9668 7.96574 13.7562 7.71873 13.4225 7.57929C12.9736 7.38407 12.7749 7.37212 12.5246 7.20878C12.1154 6.94583 11.7777 6.8542 11.4956 6.8542C10.9235 6.8542 10.5738 7.24463 10.3871 7.41993C10.3672 7.43985 10.0732 7.65499 9.8269 7.83826C9.66003 7.96973 9.60441 8.13308 9.66003 8.32829ZM8.32906 18.4L7.55035 16.9816C7.28018 16.6151 7.00207 16.392 6.68025 16.3442C6.37432 16.2964 6.17964 16.4 5.97702 16.6191C5.78631 16.8223 5.62739 17.1091 5.40887 17.3362C5.09898 17.5952 5.03938 17.5832 4.63016 17.7306C4.37985 17.8183 4.1812 17.9139 4.04214 18.1808C3.93487 18.38 3.95871 18.6669 4.00639 18.9776C4.05406 19.2924 4.12558 19.627 4.03023 19.9298V19.9378C3.83157 20.4836 3.83157 20.8023 3.92693 20.9896C4.2408 21.6031 5.77837 21.2326 6.96631 21.8621C8.21384 22.5155 9.85074 22.5434 9.95801 21.145C10.0414 20.3282 8.7065 19.1928 8.32906 18.4ZM14.4436 19.8262C14.5707 19.388 14.6939 18.9776 14.7138 18.6709C14.7455 18.0653 14.7773 17.5274 14.8886 17.0812C15.0117 16.5792 15.2581 16.1609 15.7388 15.9936C15.8302 15.153 16.4818 15.153 17.2605 15.4956C18.0114 15.8342 18.2935 16.133 18.1663 16.5354C18.2061 16.5354 18.2458 16.5314 18.3332 16.5354C18.5398 15.8621 17.7651 15.4199 17.1135 15.149C17.2287 14.6709 17.2088 14.1888 17.0976 13.7267C16.8592 12.7187 16.1997 11.8223 15.6991 11.3761C15.6077 11.3721 15.6156 11.4518 15.8024 11.635C16.2632 12.0613 17.2764 13.5952 16.7281 15.0175C16.5731 14.9777 16.4261 14.9577 16.295 14.9617C16.0845 13.8024 15.5997 12.8422 15.3574 12.388C14.9005 11.5354 14.1853 9.78645 13.8794 8.5753C13.7006 8.83028 13.3868 9.04941 12.9934 9.17291C12.8067 9.23267 12.608 9.39203 12.3617 9.53147C11.8095 9.8502 11.1698 9.88207 10.6771 9.48367C10.4983 9.34024 10.3593 9.18088 10.1765 9.07331C10.113 9.03745 9.97391 8.94184 9.9302 8.90996C9.85074 10.4159 8.84556 12.3084 8.36879 13.4C8.03903 14.1848 7.84435 15.0255 7.82051 15.8502C6.95439 14.6908 7.5861 13.2087 7.92381 12.5673C8.30125 11.8661 8.36085 11.6709 8.26947 11.7386C7.92779 12.2964 7.3954 13.1848 7.1888 14.0972C7.08153 14.5713 7.06166 15.0534 7.20072 15.4996C7.33977 15.9458 7.64173 16.3561 8.17809 16.6908C8.17809 16.6908 9.1634 17.2605 9.69976 17.9856C9.99377 18.384 10.0852 18.7306 9.99377 18.9776C9.89444 19.2446 9.61236 19.3322 9.33027 19.3322C9.52098 19.5713 9.7395 19.8501 9.90239 20.1131C11.3963 21.137 13.1682 20.7386 14.4436 19.8262ZM19.5847 18.6749C19.1874 18.2247 19.2986 17.3561 18.9053 17.0175C18.6312 16.7784 18.365 16.8024 18.0074 16.8143C17.7015 17.1649 16.9824 17.5952 16.4818 17.4637C16.0249 17.3482 15.7666 16.8143 15.7348 16.2884C15.7229 16.2964 15.707 16.3004 15.6951 16.3083C15.413 16.4637 15.2541 16.7386 15.1508 17.149C15.0515 17.5553 15.0157 18.0852 14.9839 18.6908C14.9561 19.1609 14.7376 19.7426 14.5906 20.3083C14.4515 20.8342 14.3602 21.3123 14.5469 21.7545C14.8329 22.3322 15.3216 22.5673 15.8858 22.5234C16.45 22.4796 17.0936 22.133 17.618 21.5075C18.4921 20.4478 20.0933 20.3242 20.129 19.6549C20.1409 19.4517 20.0058 19.137 19.5847 18.6749ZM9.98185 8.32431C10.0613 8.40001 10.1686 8.50359 10.2997 8.60718C10.5619 8.81435 10.9274 9.02948 11.3843 9.02948C11.8452 9.02948 12.2783 8.79443 12.6478 8.59921C12.8424 8.49562 13.0808 8.32032 13.2358 8.18487C13.3907 8.04941 13.4702 7.93387 13.3589 7.92192C13.2477 7.90997 13.2556 8.02551 13.1206 8.12511C12.9457 8.2526 12.7352 8.41993 12.5683 8.51554C12.2743 8.68287 11.7936 8.92192 11.3804 8.92192C10.9672 8.92192 10.6374 8.73068 10.3911 8.53546C10.2679 8.43586 10.1646 8.33626 10.0852 8.26056C10.0256 8.20479 10.0097 8.0773 9.91431 8.06535C9.85869 8.06136 9.84279 8.21276 9.98185 8.32431Z" fill="white"/>
</svg>
