<svg width="48" height="48" viewBox="0 0 48 48" fill="none" xmlns="http://www.w3.org/2000/svg">
<rect width="48" height="48" rx="12" fill="url(#paint0_linear_20_96355)"/>
<path d="M29.6244 9.10507C29.213 8.69373 28.5461 8.69374 28.1348 9.10507L23.9495 13.2904L19.7642 9.1051C19.3529 8.69376 18.686 8.69376 18.2746 9.1051C17.8633 9.51643 17.8633 10.1833 18.2746 10.5947L22.296 14.616H17.4014C13.9775 14.616 11.1727 17.2666 10.9268 20.6277C12.0488 20.3385 13.4829 20.2871 14.5816 20.257C19.0058 20.3409 22.477 21.7413 25.3608 24.5849C26.4522 25.6802 27.1514 27.0021 27.2916 28.547C27.4353 30.2614 26.761 31.6386 25.501 32.7643C24.6332 33.5777 23.54 34.0273 22.4486 34.4215C22.2429 34.4961 22.042 34.5706 21.843 34.6444C21.3656 34.8214 20.8995 34.9943 20.406 35.153C19.6316 35.3922 18.9028 35.7456 18.2415 36.1975H30.5991C34.1846 36.1975 37.0913 33.2909 37.0913 29.7054V21.1082C37.0913 17.5227 34.1846 14.616 30.5991 14.616H25.603L29.6244 10.5947C30.0357 10.1833 30.0357 9.51641 29.6244 9.10507Z" fill="url(#paint1_linear_20_96355)"/>
<path d="M29.6244 9.10507C29.213 8.69373 28.5461 8.69374 28.1348 9.10507L23.9495 13.2904L19.7642 9.1051C19.3529 8.69376 18.686 8.69376 18.2746 9.1051C17.8633 9.51643 17.8633 10.1833 18.2746 10.5947L22.296 14.616H17.4014C13.9775 14.616 11.1727 17.2666 10.9268 20.6277C12.0488 20.3385 13.4829 20.2871 14.5816 20.257C19.0058 20.3409 22.477 21.7413 25.3608 24.5849C26.4522 25.6802 27.1514 27.0021 27.2916 28.547C27.4353 30.2614 26.761 31.6386 25.501 32.7643C24.6332 33.5777 23.54 34.0273 22.4486 34.4215C22.2429 34.4961 22.042 34.5706 21.843 34.6444C21.3656 34.8214 20.8995 34.9943 20.406 35.153C19.6316 35.3922 18.9028 35.7456 18.2415 36.1975H30.5991C34.1846 36.1975 37.0913 33.2909 37.0913 29.7054V21.1082C37.0913 17.5227 34.1846 14.616 30.5991 14.616H25.603L29.6244 10.5947C30.0357 10.1833 30.0357 9.51641 29.6244 9.10507Z" fill="white"/>
<path d="M16.4465 36.1278C17.242 35.3585 18.2046 34.7704 19.3306 34.343C19.3827 34.322 19.4349 34.301 19.4871 34.28C20.1343 34.0192 20.7829 33.758 21.43 33.4707C22.5126 33.0201 23.4387 32.2579 24.0919 31.28C24.3502 30.908 24.5241 30.4835 24.6013 30.0366C24.6786 29.5896 24.6574 29.1311 24.5391 28.6933C24.2392 27.5123 23.5116 26.5579 22.587 25.798C20.4308 23.9444 17.9108 23.0721 15.0555 23.0168C13.6391 23.0288 12.2364 23.2871 10.9093 23.7796V26.8322C11.8339 26.3483 12.8412 26.0382 13.8808 25.9186C16.6482 25.5814 19.1327 26.2559 21.2199 28.1777C21.5088 28.4248 21.7571 28.7156 21.9556 29.0395C22.6626 30.0513 22.5785 31.1754 21.7086 32.048C21.2961 32.4469 20.8305 32.7874 20.3249 33.0597C19.7124 33.4081 19.0787 33.718 18.4275 33.9876C17.3924 34.4728 16.4643 35.1467 15.6883 35.9691C15.9355 36.0366 16.1885 36.0898 16.4465 36.1278Z" fill="url(#paint2_linear_20_96355)"/>
<path d="M16.4465 36.1278C17.242 35.3585 18.2046 34.7704 19.3306 34.343C19.3827 34.322 19.4349 34.301 19.4871 34.28C20.1343 34.0192 20.7829 33.758 21.43 33.4707C22.5126 33.0201 23.4387 32.2579 24.0919 31.28C24.3502 30.908 24.5241 30.4835 24.6013 30.0366C24.6786 29.5896 24.6574 29.1311 24.5391 28.6933C24.2392 27.5123 23.5116 26.5579 22.587 25.798C20.4308 23.9444 17.9108 23.0721 15.0555 23.0168C13.6391 23.0288 12.2364 23.2871 10.9093 23.7796V26.8322C11.8339 26.3483 12.8412 26.0382 13.8808 25.9186C16.6482 25.5814 19.1327 26.2559 21.2199 28.1777C21.5088 28.4248 21.7571 28.7156 21.9556 29.0395C22.6626 30.0513 22.5785 31.1754 21.7086 32.048C21.2961 32.4469 20.8305 32.7874 20.3249 33.0597C19.7124 33.4081 19.0787 33.718 18.4275 33.9876C17.3924 34.4728 16.4643 35.1467 15.6883 35.9691C15.9355 36.0366 16.1885 36.0898 16.4465 36.1278Z" fill="white"/>
<path d="M11.6169 32.6558C11.2217 31.8825 10.977 31.0195 10.9214 30.1055C11.67 29.4785 12.5577 29.0342 13.5139 28.8111C15.1822 28.4519 16.9185 28.5179 18.3988 29.4856C18.8393 29.7563 19.2229 30.1096 19.5283 30.5259C20.0653 31.2575 19.9508 32.0444 19.2455 32.6351C18.9316 32.9015 18.5792 33.1193 18.2001 33.281C16.934 33.8421 15.8138 34.6714 14.9136 35.7038C14.7105 35.6194 14.5126 35.5251 14.3205 35.4213C14.9293 34.7275 15.6308 34.1158 16.4073 33.6038C16.6306 33.4455 16.8353 33.263 17.0174 33.0598C17.4217 32.6318 17.4217 32.1748 16.9862 31.7741C16.7248 31.5234 16.4206 31.3202 16.0875 31.1739C14.4363 30.5556 12.6171 31.2609 11.6169 32.6558Z" fill="url(#paint3_linear_20_96355)"/>
<path d="M11.6169 32.6558C11.2217 31.8825 10.977 31.0195 10.9214 30.1055C11.67 29.4785 12.5577 29.0342 13.5139 28.8111C15.1822 28.4519 16.9185 28.5179 18.3988 29.4856C18.8393 29.7563 19.2229 30.1096 19.5283 30.5259C20.0653 31.2575 19.9508 32.0444 19.2455 32.6351C18.9316 32.9015 18.5792 33.1193 18.2001 33.281C16.934 33.8421 15.8138 34.6714 14.9136 35.7038C14.7105 35.6194 14.5126 35.5251 14.3205 35.4213C14.9293 34.7275 15.6308 34.1158 16.4073 33.6038C16.6306 33.4455 16.8353 33.263 17.0174 33.0598C17.4217 32.6318 17.4217 32.1748 16.9862 31.7741C16.7248 31.5234 16.4206 31.3202 16.0875 31.1739C14.4363 30.5556 12.6171 31.2609 11.6169 32.6558Z" fill="white"/>
<defs>
<linearGradient id="paint0_linear_20_96355" x1="5" y1="5" x2="43.453" y2="43.5469" gradientUnits="userSpaceOnUse">
<stop stop-color="#00A3FF"/>
<stop offset="1" stop-color="#8F37FF"/>
</linearGradient>
<linearGradient id="paint1_linear_20_96355" x1="13.6366" y1="11.6508" x2="35.5673" y2="32.6571" gradientUnits="userSpaceOnUse">
<stop stop-color="#00A3FF"/>
<stop offset="1" stop-color="#8F37FF"/>
</linearGradient>
<linearGradient id="paint2_linear_20_96355" x1="13.6366" y1="11.6508" x2="35.5673" y2="32.6571" gradientUnits="userSpaceOnUse">
<stop stop-color="#00A3FF"/>
<stop offset="1" stop-color="#8F37FF"/>
</linearGradient>
<linearGradient id="paint3_linear_20_96355" x1="13.6366" y1="11.6508" x2="35.5673" y2="32.6571" gradientUnits="userSpaceOnUse">
<stop stop-color="#00A3FF"/>
<stop offset="1" stop-color="#8F37FF"/>
</linearGradient>
</defs>
</svg>
