<svg width="48" height="48" viewBox="0 0 48 48" fill="none" xmlns="http://www.w3.org/2000/svg">
<rect width="48" height="48" rx="12" fill="url(#paint0_linear_20_96204)"/>
<path d="M23.4979 8.63811C23.7493 8.30284 24.2522 8.30284 24.5037 8.63811L26.2525 10.9699C26.5634 11.3843 26.2677 11.9757 25.7496 11.9757L22.2519 11.9757C21.7339 11.9757 21.4382 11.3843 21.749 10.9699L23.4979 8.63811Z" fill="white"/>
<path d="M24.5037 39.3622C24.2522 39.6974 23.7493 39.6974 23.4979 39.3622L21.749 37.0304C21.4382 36.616 21.7339 36.0246 22.2519 36.0246H25.7496C26.2677 36.0246 26.5634 36.616 26.2525 37.0304L24.5037 39.3622Z" fill="white"/>
<path d="M16.466 19.4359C16.3424 19.4359 16.216 19.4379 16.0871 19.4422L16.0942 19.4411C16.9829 17.8665 18.3266 16.5937 19.9511 15.7874C21.5756 14.9811 23.4061 14.6785 25.2056 14.9188C27.005 15.1591 28.6904 15.9313 30.0435 17.1352C31.3966 18.3391 32.355 19.9194 32.7946 21.6713C34.2064 21.887 35.4841 22.625 36.372 23.7377C37.26 24.8503 37.6926 26.2554 37.5833 27.6717C37.474 29.0881 36.8309 30.4111 35.7826 31.3759C34.7343 32.3408 33.3583 32.8763 31.93 32.8753H20.0895C20.5284 32.6242 20.9959 32.4206 21.4843 32.2697C21.9095 32.133 22.3111 31.9841 22.7224 31.8315C22.8939 31.768 23.067 31.7037 23.2443 31.6395C24.1847 31.2999 25.1266 30.9125 25.8743 30.2117C26.9599 29.2418 27.5409 28.0553 27.4171 26.5783C27.2963 25.2472 26.6938 24.1083 25.7535 23.1646C23.2687 20.7147 20.2779 19.5081 16.466 19.4359Z" fill="white"/>
<path d="M20.5577 31.5719C19.7053 31.8954 18.9615 32.3259 18.3285 32.8753H17.5127C18.1619 32.2107 18.9287 31.664 19.7794 31.2653C20.3405 31.033 20.8865 30.766 21.4142 30.4659C21.8498 30.2312 22.251 29.9379 22.6064 29.5942C23.356 28.8424 23.4285 27.8739 22.8193 27.0022C22.6482 26.7232 22.4343 26.4726 22.1854 26.2597C20.387 24.6039 18.2463 24.0228 15.8619 24.3134C15.0114 24.4112 11.7949 24.9138 10.569 27.6113C10.4684 27.171 10.4118 26.7188 10.4017 26.2612C10.5126 22.2693 15.6798 21.8237 16.8742 21.8136C19.3345 21.8613 21.5057 22.6128 23.3635 24.2098C24.1602 24.8645 24.7871 25.6868 25.0455 26.7043C25.1474 27.0815 25.1657 27.4765 25.0991 27.8616C25.0325 28.2467 24.8827 28.6124 24.6602 28.9329C24.0974 29.7754 23.2994 30.4321 22.3666 30.8203C21.809 31.0678 21.2501 31.293 20.6924 31.5177L20.5577 31.5719Z" fill="white"/>
<path d="M12.176 30.6704C12.2459 30.7467 12.3178 30.8215 12.3915 30.8948C12.6297 31.1318 12.8839 31.3493 13.1514 31.5465C13.6683 29.272 16.0572 28.2034 17.763 28.8421C18.05 28.9682 18.3121 29.1432 18.5373 29.3593C18.9125 29.7045 18.9125 30.0982 18.5642 30.4669C18.4073 30.6421 18.231 30.7993 18.0385 30.9356C17.2705 31.4421 16.5876 32.0617 16.0129 32.7716C16.2257 32.8091 16.4408 32.8366 16.6576 32.8538C17.4488 31.9132 18.448 31.1597 19.5835 30.6565C19.9101 30.5172 20.2137 30.3296 20.4842 30.1C21.0919 29.5911 21.1906 28.9132 20.7279 28.2828C20.4647 27.9241 20.1342 27.6197 19.7547 27.3866C18.4792 26.5528 16.9832 26.496 15.5457 26.8054C14.6063 27.0246 12.7172 27.7805 12.176 30.6704Z" fill="white"/>
<defs>
<linearGradient id="paint0_linear_20_96204" x1="5" y1="4.5" x2="47.3582" y2="38.725" gradientUnits="userSpaceOnUse">
<stop stop-color="#FF9649"/>
<stop offset="1" stop-color="#FF426F"/>
</linearGradient>
</defs>
</svg>
