<svg width="48" height="48" viewBox="0 0 48 48" fill="none" xmlns="http://www.w3.org/2000/svg">
<rect width="48" height="48" rx="12" fill="url(#paint0_linear_77_5421)"/>
<path d="M10.1289 21.8235H8.05798V26.1754H10.1289V21.8235Z" fill="#0F0F0F"/>
<path d="M12.3519 16.0798H10.42V31.8619H12.3519V16.0798Z" fill="#0F0F0F"/>
<path d="M14.5753 13.4758H12.7823V26.8747H14.5753V13.4758Z" fill="#0F0F0F"/>
<path d="M16.7978 11.7083H15.1503V23.6306H16.7978V11.7083Z" fill="#0F0F0F"/>
<path d="M19.0211 10.5295H17.5126V21.9014H19.0211V10.5295Z" fill="#0F0F0F"/>
<path d="M21.2442 9.79801H19.8747V20.8785H21.2442V9.79801Z" fill="#0F0F0F"/>
<path d="M23.4675 9.40906H22.2369V20.4118H23.4675V9.40906Z" fill="#0F0F0F"/>
<path d="M25.6901 9.40906H24.5985V20.4118H25.6901V9.40906Z" fill="#0F0F0F"/>
<path d="M27.92 9.79801H26.9673V20.8785H27.92V9.79801Z" fill="#0F0F0F"/>
<path d="M30.1431 10.5295H29.3293V21.9014H30.1431V10.5295Z" fill="#0F0F0F"/>
<path d="M32.3596 11.7083H31.6913V23.6824H32.3596V11.7083Z" fill="#0F0F0F"/>
<path d="M34.5826 13.4758H34.0533V21.124H34.5826V13.4758Z" fill="#0F0F0F"/>
<path d="M39.9419 21.9016H37.871V26.098H39.9419V21.9016Z" fill="#0F0F0F"/>
<path d="M37.5793 16.1376H35.6474V31.3498H37.5793V16.1376Z" fill="#0F0F0F"/>
<path d="M35.2179 21.1243H33.4249V34.5232H35.2179V21.1243Z" fill="#0F0F0F"/>
<path d="M32.8493 24.317H31.2018V36.2911H32.8493V24.317Z" fill="#0F0F0F"/>
<path d="M30.487 26.0979H28.9785V37.4698H30.487V26.0979Z" fill="#0F0F0F"/>
<path d="M28.1252 27.1211H26.7557V38.2015H28.1252V27.1211Z" fill="#0F0F0F"/>
<path d="M25.7633 27.5871H24.5326V38.5899H25.7633V27.5871Z" fill="#0F0F0F"/>
<path d="M23.4009 27.5871H22.3092V38.5899H23.4009V27.5871Z" fill="#0F0F0F"/>
<path d="M21.0393 27.1211H20.0865V38.2015H21.0393V27.1211Z" fill="#0F0F0F"/>
<path d="M18.6775 26.0979H17.8637V37.4698H18.6775V26.0979Z" fill="#0F0F0F"/>
<path d="M16.3083 24.317H15.6401V36.2911H16.3083V24.317Z" fill="#0F0F0F"/>
<path d="M13.9466 26.8749H13.4173V34.523H13.9466V26.8749Z" fill="#0F0F0F"/>
<defs>
<linearGradient id="paint0_linear_77_5421" x1="24" y1="0" x2="24" y2="48" gradientUnits="userSpaceOnUse">
<stop stop-color="#FFC98A"/>
<stop offset="1" stop-color="#EAA658"/>
</linearGradient>
</defs>
</svg>
