<svg width="24" height="24" viewBox="0 0 24 24" fill="none" xmlns="http://www.w3.org/2000/svg">
<path d="M11.9999 14.3179L11.9999 12M11.9999 9.67459V9.65702M14.5345 17.1035L12 20L9.46549 17.1035H7.00009C5.89544 17.1035 4.99998 16.2079 5.00003 15.1033C5.00014 12.7355 5.00005 10.3678 5 8.00002C4.99998 6.89546 5.89528 6.00003 6.99983 6.00002C10.1224 6 13.8775 6 17.0001 6C18.1047 6 19 6.89543 19 8C19 10.3678 19 12.7357 19 15.1035C19 16.208 18.1045 17.1035 17 17.1035C16.1781 17.1035 15.3563 17.1035 14.5345 17.1035Z" stroke="black" stroke-width="1.5" stroke-linecap="round" stroke-linejoin="round"/>
</svg>
