<svg width="16" height="16" viewBox="0 0 16 16" fill="none" xmlns="http://www.w3.org/2000/svg">
<path d="M7.99986 9.3179L7.99986 7.00003M7.99986 4.67459V4.65702M10.5345 12.1035L7.99998 15L5.46549 12.1035H3.00009C1.89544 12.1035 0.999984 11.2079 1.00003 10.1033C1.00014 7.73552 1.00005 5.36777 1 3.00002C0.999978 1.89546 1.89528 1.00003 2.99983 1.00002C6.12239 0.999996 9.87753 0.999999 13.0001 1C14.1047 1 15 1.89543 15 3C15 5.36783 15 7.73565 15 10.1035C15 11.208 14.1045 12.1035 13 12.1035C12.1781 12.1035 11.3563 12.1035 10.5345 12.1035Z" stroke="black" stroke-width="1.5" stroke-linecap="round" stroke-linejoin="round"/>
</svg>
