<svg width="24" height="24" viewBox="0 0 24 24" fill="none" xmlns="http://www.w3.org/2000/svg">
<path d="M19.5 10L20.0303 10.5303C20.171 10.3897 20.25 10.1989 20.25 10H19.5ZM4.5 10H3.75C3.75 10.1989 3.82902 10.3897 3.96967 10.5303L4.5 10ZM11.9142 13.9219C12.3284 13.9219 12.6642 13.5861 12.6642 13.1719C12.6642 12.7577 12.3284 12.4219 11.9142 12.4219V13.9219ZM11.9298 21.0003L11.9352 21.7503L11.9298 21.0003ZM16.5784 17.0651C16.5754 16.6509 16.2372 16.3175 15.823 16.3205C15.4088 16.3235 15.0755 16.6617 15.0785 17.0759L16.5784 17.0651ZM11 13.2793L11.1748 14.0087L11 13.2793ZM15.7551 17.8571L15.0192 17.7123L15.7551 17.8571ZM6.96967 13.5303C7.26256 13.8232 7.73744 13.8232 8.03033 13.5303C8.32322 13.2374 8.32322 12.7626 8.03033 12.4697L6.96967 13.5303ZM16.9697 11.4697C16.6768 11.7626 16.6768 12.2374 16.9697 12.5303C17.2626 12.8232 17.7374 12.8232 18.0303 12.5303L16.9697 11.4697ZM6.76448 9.09423L7.04302 9.79059L7.04302 9.79058L6.76448 9.09423ZM9.73561 9.09422L10.0142 8.39787L9.73561 9.09422ZM10.5145 9.40577L10.2359 10.1021L10.5145 9.40577ZM13.4856 9.40578L13.7642 10.1021L13.7642 10.1021L13.4856 9.40578ZM14.2645 9.09423L13.9859 8.39787V8.39787L14.2645 9.09423ZM17.2356 9.09422L17.5142 8.39787L17.5142 8.39787L17.2356 9.09422ZM20.25 10C20.25 5.6719 16.5068 2.25 12 2.25V3.75C15.7775 3.75 18.75 6.59612 18.75 10H20.25ZM12 2.25C7.49323 2.25 3.75 5.6719 3.75 10H5.25C5.25 6.59612 8.2225 3.75 12 3.75V2.25ZM14.7829 16.1839C15.8692 16.1839 16.7498 15.3033 16.7498 14.217H15.2498C15.2498 14.4749 15.0408 14.6839 14.7829 14.6839V16.1839ZM12.8159 14.217C12.8159 15.3033 13.6965 16.1839 14.7829 16.1839V14.6839C14.5249 14.6839 14.3159 14.4749 14.3159 14.217H12.8159ZM14.7829 12.25C13.6965 12.25 12.8159 13.1306 12.8159 14.217H14.3159C14.3159 13.9591 14.5249 13.75 14.7829 13.75V12.25ZM16.7498 14.217C16.7498 13.1306 15.8692 12.25 14.7829 12.25V13.75C15.0408 13.75 15.2498 13.9591 15.2498 14.217H16.7498ZM7.25 17.1017C7.25 19.6864 9.35201 21.7689 11.9352 21.7503L11.9244 20.2503C10.1723 20.2629 8.75 18.8522 8.75 17.1017H7.25ZM11.9142 12.4219C11.54 12.4219 11.1752 12.4661 10.8252 12.55L11.1748 14.0087C11.4111 13.9521 11.6585 13.9219 11.9142 13.9219V12.4219ZM10.8252 12.55C8.76854 13.0429 7.25 14.8972 7.25 17.1017H8.75C8.75 15.6008 9.78318 14.3422 11.1748 14.0087L10.8252 12.55ZM11.9352 21.7503C14.191 21.7341 16.0705 20.1388 16.491 18.0019L15.0192 17.7123C14.7358 19.1527 13.4647 20.2392 11.9244 20.2503L11.9352 21.7503ZM16.491 18.0019C16.5506 17.6986 16.5807 17.3853 16.5784 17.0651L15.0785 17.0759C15.08 17.2949 15.0595 17.5076 15.0192 17.7123L16.491 18.0019ZM3.96967 10.5303L6.96967 13.5303L8.03033 12.4697L5.03033 9.46967L3.96967 10.5303ZM18.9697 9.46967L16.9697 11.4697L18.0303 12.5303L20.0303 10.5303L18.9697 9.46967ZM4.77854 10.6964L7.04302 9.79059L6.48594 8.39787L4.22146 9.30364L4.77854 10.6964ZM9.45706 9.79058L10.2359 10.1021L10.793 8.70942L10.0142 8.39787L9.45706 9.79058ZM13.7642 10.1021L14.543 9.79058L13.9859 8.39787L13.2071 8.70942L13.7642 10.1021ZM16.9571 9.79058L19.2215 10.6964L19.7785 9.30364L17.5142 8.39787L16.9571 9.79058ZM14.543 9.79058C15.3179 9.48065 16.1822 9.48065 16.9571 9.79058L17.5142 8.39787C16.3817 7.94489 15.1184 7.94489 13.9859 8.39787L14.543 9.79058ZM7.04302 9.79058C7.81786 9.48065 8.68223 9.48065 9.45706 9.79058L10.0142 8.39787C8.8817 7.94489 7.61839 7.94489 6.48594 8.39787L7.04302 9.79058ZM10.2359 10.1021C11.3684 10.5551 12.6317 10.5551 13.7642 10.1021L13.2071 8.70942C12.4322 9.01935 11.5679 9.01935 10.793 8.70942L10.2359 10.1021Z" fill="black"/>
</svg>
