<svg width="18" height="20" viewBox="0 0 18 20" fill="none" xmlns="http://www.w3.org/2000/svg">
<path d="M16.5 8L17.0303 8.53033C17.171 8.38968 17.25 8.19891 17.25 8H16.5ZM1.5 8H0.75C0.75 8.19891 0.829018 8.38968 0.96967 8.53033L1.5 8ZM8.91422 11.9219C9.32843 11.9219 9.66422 11.5861 9.66422 11.1719C9.66422 10.7577 9.32843 10.4219 8.91422 10.4219V11.9219ZM8.92981 19.0003L8.93521 19.7503L8.92981 19.0003ZM13.5784 15.0651C13.5754 14.6509 13.2372 14.3175 12.823 14.3205C12.4088 14.3235 12.0755 14.6617 12.0785 15.0759L13.5784 15.0651ZM8 11.2793L8.1748 12.0087L8 11.2793ZM12.7551 15.8571L12.0192 15.7123L12.7551 15.8571ZM3.96967 11.5303C4.26256 11.8232 4.73744 11.8232 5.03033 11.5303C5.32322 11.2374 5.32322 10.7626 5.03033 10.4697L3.96967 11.5303ZM13.9697 9.46967C13.6768 9.76256 13.6768 10.2374 13.9697 10.5303C14.2626 10.8232 14.7374 10.8232 15.0303 10.5303L13.9697 9.46967ZM3.76448 7.09423L4.04302 7.79059L4.04302 7.79058L3.76448 7.09423ZM6.73561 7.09422L7.01415 6.39787L6.73561 7.09422ZM7.51448 7.40577L7.23594 8.10213L7.51448 7.40577ZM10.4856 7.40578L10.7642 8.10213L10.7642 8.10213L10.4856 7.40578ZM11.2645 7.09423L10.9859 6.39787V6.39787L11.2645 7.09423ZM14.2356 7.09422L14.5142 6.39787L14.5142 6.39787L14.2356 7.09422ZM17.25 8C17.25 3.6719 13.5068 0.25 9 0.25V1.75C12.7775 1.75 15.75 4.59612 15.75 8H17.25ZM9 0.25C4.49323 0.25 0.75 3.6719 0.75 8H2.25C2.25 4.59612 5.2225 1.75 9 1.75V0.25ZM11.7829 14.1839C12.8692 14.1839 13.7498 13.3033 13.7498 12.217H12.2498C12.2498 12.4749 12.0408 12.6839 11.7829 12.6839V14.1839ZM9.81588 12.217C9.81588 13.3033 10.6965 14.1839 11.7829 14.1839V12.6839C11.5249 12.6839 11.3159 12.4749 11.3159 12.217H9.81588ZM11.7829 10.25C10.6965 10.25 9.81588 11.1306 9.81588 12.217H11.3159C11.3159 11.9591 11.5249 11.75 11.7829 11.75V10.25ZM13.7498 12.217C13.7498 11.1306 12.8692 10.25 11.7829 10.25V11.75C12.0408 11.75 12.2498 11.9591 12.2498 12.217H13.7498ZM4.25 15.1017C4.25 17.6864 6.35201 19.7689 8.93521 19.7503L8.92442 18.2503C7.17234 18.2629 5.75 16.8522 5.75 15.1017H4.25ZM8.91422 10.4219C8.53996 10.4219 8.17521 10.4661 7.8252 10.55L8.1748 12.0087C8.41107 11.9521 8.6585 11.9219 8.91422 11.9219V10.4219ZM7.8252 10.55C5.76854 11.0429 4.25 12.8972 4.25 15.1017H5.75C5.75 13.6008 6.78318 12.3422 8.1748 12.0087L7.8252 10.55ZM8.93521 19.7503C11.191 19.7341 13.0705 18.1388 13.491 16.0019L12.0192 15.7123C11.7358 17.1527 10.4647 18.2392 8.92442 18.2503L8.93521 19.7503ZM13.491 16.0019C13.5506 15.6986 13.5807 15.3853 13.5784 15.0651L12.0785 15.0759C12.08 15.2949 12.0595 15.5076 12.0192 15.7123L13.491 16.0019ZM0.96967 8.53033L3.96967 11.5303L5.03033 10.4697L2.03033 7.46967L0.96967 8.53033ZM15.9697 7.46967L13.9697 9.46967L15.0303 10.5303L17.0303 8.53033L15.9697 7.46967ZM1.77854 8.69636L4.04302 7.79059L3.48594 6.39787L1.22146 7.30364L1.77854 8.69636ZM6.45706 7.79058L7.23594 8.10213L7.79302 6.70942L7.01415 6.39787L6.45706 7.79058ZM10.7642 8.10213L11.543 7.79058L10.9859 6.39787L10.2071 6.70942L10.7642 8.10213ZM13.9571 7.79058L16.2215 8.69636L16.7785 7.30364L14.5142 6.39787L13.9571 7.79058ZM11.543 7.79058C12.3179 7.48065 13.1822 7.48065 13.9571 7.79058L14.5142 6.39787C13.3817 5.94489 12.1184 5.94489 10.9859 6.39787L11.543 7.79058ZM4.04302 7.79058C4.81786 7.48065 5.68223 7.48065 6.45706 7.79058L7.01415 6.39787C5.8817 5.94489 4.61839 5.94489 3.48594 6.39787L4.04302 7.79058ZM7.23594 8.10213C8.36839 8.55511 9.6317 8.55511 10.7642 8.10213L10.2071 6.70942C9.43223 7.01935 8.56786 7.01935 7.79302 6.70942L7.23594 8.10213Z" fill="black"/>
</svg>
