<svg width="20" height="20" viewBox="0 0 20 20" fill="none" xmlns="http://www.w3.org/2000/svg">
<path fill-rule="evenodd" clip-rule="evenodd" d="M1 2.375C1 1.96079 1.33579 1.625 1.75 1.625H4C4.34415 1.625 4.64414 1.85922 4.72761 2.1931L5.33558 4.625H16.25C16.4791 4.625 16.6957 4.72973 16.8379 4.90935C16.9802 5.08896 17.0325 5.32375 16.9801 5.54678L15.3429 12.5049L15.3429 12.5049C15.0505 13.747 13.9422 14.625 12.666 14.625H8.5395C7.2917 14.625 6.20032 13.7849 5.88103 12.5787L5.88103 12.5787L4.02497 5.56692L4.02232 5.55692L4.02239 5.5569L3.41442 3.125H1.75C1.33579 3.125 1 2.78921 1 2.375ZM5.72436 6.125L7.33109 12.1949L7.33109 12.1949C7.47622 12.7431 7.97231 13.125 8.5395 13.125H12.666C13.246 13.125 13.7499 12.726 13.8827 12.1613L15.303 6.125H5.72436ZM7 17.8739C7.68975 17.8739 8.24891 17.3148 8.24891 16.625C8.24891 15.9352 7.68975 15.3761 7 15.3761C6.31025 15.3761 5.75109 15.9352 5.75109 16.625C5.75109 17.3148 6.31025 17.8739 7 17.8739ZM15.25 16.6251C15.25 17.3154 14.6904 17.875 14.0001 17.875C13.3098 17.875 12.7502 17.3154 12.7502 16.6251C12.7502 15.9348 13.3098 15.3752 14.0001 15.3752C14.6904 15.3752 15.25 15.9348 15.25 16.6251Z" fill="black"/>
</svg>
