<svg width="18" height="16" viewBox="0 0 18 16" fill="none" xmlns="http://www.w3.org/2000/svg">
<path d="M9 1H10.5C11.0523 1 11.5 1.44772 11.5 2V14C11.5 14.5523 11.0523 15 10.5 15H9M14 1H15.5C16.0523 1 16.5 1.44772 16.5 2V14C16.5 14.5523 16.0523 15 15.5 15H14M4 7V5M9 7V5M14 7V5M2.5 15H5.5C6.05228 15 6.5 14.5523 6.5 14V2C6.5 1.44772 6.05228 1 5.5 1H2.5C1.94772 1 1.5 1.44772 1.5 2V14C1.5 14.5523 1.94772 15 2.5 15Z" stroke="black" stroke-width="1.5" stroke-linecap="round" stroke-linejoin="round"/>
</svg>
