<svg width="24" height="24" viewBox="0 0 24 24" fill="none" xmlns="http://www.w3.org/2000/svg">
<path d="M12 5H13.5C14.0523 5 14.5 5.44772 14.5 6V18C14.5 18.5523 14.0523 19 13.5 19H12M17 5H18.5C19.0523 5 19.5 5.44772 19.5 6V18C19.5 18.5523 19.0523 19 18.5 19H17M7 11V9M12 11V9M17 11V9M5.5 19H8.5C9.05228 19 9.5 18.5523 9.5 18V6C9.5 5.44772 9.05228 5 8.5 5H5.5C4.94772 5 4.5 5.44772 4.5 6V18C4.5 18.5523 4.94772 19 5.5 19Z" stroke="black" stroke-width="1.5" stroke-linecap="round" stroke-linejoin="round"/>
</svg>
