<svg width="41" height="40" viewBox="0 0 41 40" fill="none" xmlns="http://www.w3.org/2000/svg">
<rect x="0.859375" width="40" height="40" rx="20" fill="url(#paint0_linear_15444_6372)"/>
<path d="M24.859 16C24.859 17.0609 24.4375 18.0783 23.6874 18.8284C22.9372 19.5786 21.9198 20 20.859 20C19.7981 20 18.7807 19.5786 18.0305 18.8284C17.2804 18.0783 16.859 17.0609 16.859 16M12.4922 15.4014L11.7922 23.8014C11.6418 25.6059 11.5666 26.5082 11.8716 27.2042C12.1396 27.8157 12.604 28.3204 13.1911 28.6382C13.8594 29 14.7648 29 16.5756 29H25.1423C26.9531 29 27.8585 29 28.5268 28.6382C29.1139 28.3204 29.5783 27.8157 29.8463 27.2042C30.1513 26.5082 30.0761 25.6059 29.9257 23.8014L29.2257 15.4014C29.0964 13.8488 29.0317 13.0724 28.6878 12.4849C28.3851 11.9674 27.9342 11.5526 27.3934 11.2938C26.7793 11 26.0003 11 24.4423 11L17.2756 11C15.7176 11 14.9386 11 14.3245 11.2938C13.7837 11.5526 13.3329 11.9674 13.0301 12.4849C12.6863 13.0724 12.6216 13.8487 12.4922 15.4014Z" stroke="black" stroke-width="2" stroke-linecap="round" stroke-linejoin="round"/>
<defs>
<linearGradient id="paint0_linear_15444_6372" x1="6.18041" y1="7.13545" x2="33.9022" y2="34.8572" gradientUnits="userSpaceOnUse">
<stop stop-color="#BCEB00"/>
<stop offset="1" stop-color="#00EAEA"/>
</linearGradient>
</defs>
</svg>
