<svg width="41" height="40" viewBox="0 0 41 40" fill="none" xmlns="http://www.w3.org/2000/svg">
<rect x="0.859375" width="40" height="40" rx="20" fill="url(#paint0_linear_15444_6405)"/>
<path d="M20.4408 7.19843C20.6503 6.91905 21.0694 6.91904 21.279 7.19843L22.7364 9.14161C22.9954 9.48695 22.7489 9.97977 22.3173 9.97977L19.4025 9.97977C18.9708 9.97977 18.7244 9.48695 18.9834 9.14161L20.4408 7.19843Z" fill="white"/>
<path d="M21.279 32.8018C21.0694 33.0812 20.6503 33.0812 20.4408 32.8018L18.9834 30.8586C18.7244 30.5133 18.9708 30.0205 19.4025 30.0205H22.3173C22.7489 30.0205 22.9954 30.5133 22.7364 30.8586L21.279 32.8018Z" fill="white"/>
<path d="M14.5809 16.1966C14.4779 16.1966 14.3725 16.1983 14.2652 16.2019L14.2711 16.2009C15.0117 14.8888 16.1314 13.8281 17.4851 13.1562C18.8389 12.4843 20.3643 12.2321 21.8639 12.4324C23.3634 12.6326 24.7679 13.2761 25.8955 14.2793C27.0231 15.2826 27.8217 16.5995 28.1881 18.0594C29.3645 18.2392 30.4293 18.8542 31.1693 19.7814C31.9092 20.7086 32.2697 21.8795 32.1786 23.0598C32.0876 24.2401 31.5516 25.3426 30.6781 26.1466C29.8045 26.9507 28.6578 27.3969 27.4676 27.3961H17.6005C17.9663 27.1868 18.3558 27.0172 18.7628 26.8914C19.1172 26.7775 19.4518 26.6534 19.7946 26.5263C19.9375 26.4733 20.0818 26.4198 20.2295 26.3663C21.0131 26.0832 21.798 25.7605 22.4211 25.1764C23.3258 24.3682 23.81 23.3794 23.7068 22.1486C23.6061 21.0394 23.1041 20.0903 22.3205 19.3039C20.2499 17.2622 17.7575 16.2568 14.5809 16.1966Z" fill="white"/>
<path d="M17.9907 26.3099C17.2803 26.5795 16.6605 26.9383 16.133 27.3961H15.4531C15.9941 26.8423 16.6331 26.3867 17.342 26.0545C17.8096 25.8608 18.2646 25.6383 18.7044 25.3883C19.0674 25.1927 19.4017 24.9483 19.6979 24.6619C20.3226 24.0354 20.383 23.2283 19.8753 22.5019C19.7327 22.2693 19.5545 22.0605 19.347 21.8831C17.8484 20.5033 16.0645 20.019 14.0775 20.2611C13.3688 20.3427 10.6884 20.7615 9.6667 23.0094C9.58289 22.6425 9.5357 22.2657 9.52734 21.8843C9.61969 18.5577 13.9257 18.1864 14.9211 18.178C16.9713 18.2177 18.7807 18.844 20.3289 20.1748C20.9927 20.7204 21.5151 21.4057 21.7305 22.2536C21.8154 22.5679 21.8306 22.8971 21.7752 23.218C21.7197 23.5389 21.5948 23.8437 21.4094 24.1108C20.9404 24.8129 20.2754 25.3601 19.4981 25.6836C19.0334 25.8899 18.5677 26.0775 18.1029 26.2647L17.9907 26.3099Z" fill="white"/>
<path d="M11.0059 25.5587C11.0642 25.6223 11.124 25.6846 11.1855 25.7457C11.384 25.9432 11.5958 26.1245 11.8187 26.2887C12.2495 24.3934 14.2402 23.5029 15.6618 24.0351C15.9009 24.1402 16.1193 24.286 16.307 24.4661C16.6197 24.7538 16.6197 25.0819 16.3294 25.3891C16.1986 25.5351 16.0517 25.6661 15.8913 25.7797C15.2513 26.2017 14.6822 26.7181 14.2033 27.3097C14.3807 27.3409 14.5599 27.3638 14.7406 27.3782C15.3999 26.5943 16.2325 25.9664 17.1788 25.5471C17.451 25.431 17.704 25.2746 17.9294 25.0834C18.4358 24.6593 18.518 24.0943 18.1325 23.569C17.9132 23.2701 17.6377 23.0165 17.3215 22.8221C16.2586 22.1274 15.0119 22.08 13.814 22.3379C13.0312 22.5205 11.4569 23.1504 11.0059 25.5587Z" fill="white"/>
<defs>
<linearGradient id="paint0_linear_15444_6405" x1="5.02604" y1="3.75" x2="40.3245" y2="32.2708" gradientUnits="userSpaceOnUse">
<stop stop-color="#FF9649"/>
<stop offset="1" stop-color="#FF426F"/>
</linearGradient>
</defs>
</svg>
