<svg width="41" height="40" viewBox="0 0 41 40" fill="none" xmlns="http://www.w3.org/2000/svg">
<rect x="0.859375" width="40" height="40" rx="20" fill="url(#paint0_linear_15444_6414)"/>
<path d="M25.5466 7.58753C25.2038 7.24475 24.648 7.24475 24.3052 7.58753L20.8175 11.0753L17.3298 7.58755C16.987 7.24477 16.4313 7.24477 16.0885 7.58755C15.7457 7.93033 15.7457 8.48609 16.0885 8.82887L19.4396 12.18H15.3608C12.5075 12.18 10.1702 14.3888 9.96528 17.1897C10.9003 16.9488 12.0954 16.9058 13.011 16.8808C16.6978 16.9507 19.5904 18.1177 21.9936 20.4874C22.9031 21.4002 23.4857 22.5017 23.6026 23.7891C23.7224 25.2178 23.1604 26.3655 22.1104 27.3035C21.3872 27.9814 20.4763 28.356 19.5668 28.6846C19.3953 28.7467 19.2279 28.8088 19.0621 28.8703C18.6643 29.0178 18.2758 29.1619 17.8646 29.2941C17.2193 29.4934 16.6119 29.788 16.0608 30.1646H26.3589C29.3468 30.1646 31.769 27.7424 31.769 24.7545V17.5901C31.769 14.6022 29.3468 12.18 26.3589 12.18H22.1954L25.5466 8.82885C25.8893 8.48607 25.8893 7.93031 25.5466 7.58753Z" fill="url(#paint1_linear_15444_6414)"/>
<path d="M25.5466 7.58753C25.2038 7.24475 24.648 7.24475 24.3052 7.58753L20.8175 11.0753L17.3298 7.58755C16.987 7.24477 16.4313 7.24477 16.0885 7.58755C15.7457 7.93033 15.7457 8.48609 16.0885 8.82887L19.4396 12.18H15.3608C12.5075 12.18 10.1702 14.3888 9.96528 17.1897C10.9003 16.9488 12.0954 16.9058 13.011 16.8808C16.6978 16.9507 19.5904 18.1177 21.9936 20.4874C22.9031 21.4002 23.4857 22.5017 23.6026 23.7891C23.7224 25.2178 23.1604 26.3655 22.1104 27.3035C21.3872 27.9814 20.4763 28.356 19.5668 28.6846C19.3953 28.7467 19.2279 28.8088 19.0621 28.8703C18.6643 29.0178 18.2758 29.1619 17.8646 29.2941C17.2193 29.4934 16.6119 29.788 16.0608 30.1646H26.3589C29.3468 30.1646 31.769 27.7424 31.769 24.7545V17.5901C31.769 14.6022 29.3468 12.18 26.3589 12.18H22.1954L25.5466 8.82885C25.8893 8.48607 25.8893 7.93031 25.5466 7.58753Z" fill="white"/>
<path d="M14.565 30.1065C15.2279 29.4654 16.0301 28.9753 16.9684 28.6192C17.0119 28.6017 17.0553 28.5841 17.0988 28.5666C17.6382 28.3493 18.1787 28.1316 18.7179 27.8922C19.6201 27.5167 20.3918 26.8816 20.9362 26.0667C21.1514 25.7566 21.2963 25.4029 21.3607 25.0305C21.4251 24.658 21.4074 24.2759 21.3089 23.9111C21.0589 22.9269 20.4526 22.1316 19.6821 21.4983C17.8853 19.9537 15.7853 19.2267 13.4058 19.1806C12.2255 19.1906 11.0566 19.4059 9.95068 19.8163V22.3601C10.7212 21.9569 11.5606 21.6985 12.4269 21.5988C14.7331 21.3178 16.8035 21.8799 18.5428 23.4813C18.7836 23.6873 18.9905 23.9297 19.1559 24.1996C19.7451 25.0427 19.675 25.9795 18.9501 26.7066C18.6063 27.0391 18.2183 27.3228 17.797 27.5498C17.2866 27.84 16.7585 28.0983 16.2158 28.323C15.3532 28.7273 14.5799 29.2889 13.9332 29.9743C14.1392 30.0304 14.35 30.0748 14.565 30.1065Z" fill="url(#paint2_linear_15444_6414)"/>
<path d="M14.565 30.1065C15.2279 29.4654 16.0301 28.9753 16.9684 28.6192C17.0119 28.6017 17.0553 28.5841 17.0988 28.5666C17.6382 28.3493 18.1787 28.1316 18.7179 27.8922C19.6201 27.5167 20.3918 26.8816 20.9362 26.0667C21.1514 25.7566 21.2963 25.4029 21.3607 25.0305C21.4251 24.658 21.4074 24.2759 21.3089 23.9111C21.0589 22.9269 20.4526 22.1316 19.6821 21.4983C17.8853 19.9537 15.7853 19.2267 13.4058 19.1806C12.2255 19.1906 11.0566 19.4059 9.95068 19.8163V22.3601C10.7212 21.9569 11.5606 21.6985 12.4269 21.5988C14.7331 21.3178 16.8035 21.8799 18.5428 23.4813C18.7836 23.6873 18.9905 23.9297 19.1559 24.1996C19.7451 25.0427 19.675 25.9795 18.9501 26.7066C18.6063 27.0391 18.2183 27.3228 17.797 27.5498C17.2866 27.84 16.7585 28.0983 16.2158 28.323C15.3532 28.7273 14.5799 29.2889 13.9332 29.9743C14.1392 30.0304 14.35 30.0748 14.565 30.1065Z" fill="white"/>
<path d="M10.5403 27.2131C10.211 26.5687 10.0071 25.8496 9.96079 25.0879C10.5846 24.5654 11.3243 24.1951 12.1211 24.0092C13.5115 23.7099 14.9584 23.7649 16.1919 24.5713C16.559 24.7969 16.8787 25.0913 17.1332 25.4382C17.5807 26.0479 17.4852 26.7037 16.8975 27.1959C16.6359 27.4179 16.3422 27.5993 16.0264 27.7341C14.9712 28.2017 14.0378 28.8928 13.2876 29.7531C13.1183 29.6828 12.9534 29.6042 12.7934 29.5178C13.3007 28.9396 13.8853 28.4298 14.5323 28.0031C14.7185 27.8712 14.889 27.7192 15.0408 27.5498C15.3777 27.1931 15.3777 26.8123 15.0147 26.4784C14.7969 26.2694 14.5434 26.1001 14.2659 25.9782C12.8899 25.4629 11.3739 26.0507 10.5403 27.2131Z" fill="url(#paint3_linear_15444_6414)"/>
<path d="M10.5403 27.2131C10.211 26.5687 10.0071 25.8496 9.96079 25.0879C10.5846 24.5654 11.3243 24.1951 12.1211 24.0092C13.5115 23.7099 14.9584 23.7649 16.1919 24.5713C16.559 24.7969 16.8787 25.0913 17.1332 25.4382C17.5807 26.0479 17.4852 26.7037 16.8975 27.1959C16.6359 27.4179 16.3422 27.5993 16.0264 27.7341C14.9712 28.2017 14.0378 28.8928 13.2876 29.7531C13.1183 29.6828 12.9534 29.6042 12.7934 29.5178C13.3007 28.9396 13.8853 28.4298 14.5323 28.0031C14.7185 27.8712 14.889 27.7192 15.0408 27.5498C15.3777 27.1931 15.3777 26.8123 15.0147 26.4784C14.7969 26.2694 14.5434 26.1001 14.2659 25.9782C12.8899 25.4629 11.3739 26.0507 10.5403 27.2131Z" fill="white"/>
<defs>
<linearGradient id="paint0_linear_15444_6414" x1="5.02604" y1="4.16666" x2="37.0702" y2="36.2891" gradientUnits="userSpaceOnUse">
<stop stop-color="#00A3FF"/>
<stop offset="1" stop-color="#8F37FF"/>
</linearGradient>
<linearGradient id="paint1_linear_15444_6414" x1="12.2234" y1="9.709" x2="30.499" y2="27.2142" gradientUnits="userSpaceOnUse">
<stop stop-color="#00A3FF"/>
<stop offset="1" stop-color="#8F37FF"/>
</linearGradient>
<linearGradient id="paint2_linear_15444_6414" x1="12.2234" y1="9.709" x2="30.499" y2="27.2142" gradientUnits="userSpaceOnUse">
<stop stop-color="#00A3FF"/>
<stop offset="1" stop-color="#8F37FF"/>
</linearGradient>
<linearGradient id="paint3_linear_15444_6414" x1="12.2234" y1="9.709" x2="30.499" y2="27.2142" gradientUnits="userSpaceOnUse">
<stop stop-color="#00A3FF"/>
<stop offset="1" stop-color="#8F37FF"/>
</linearGradient>
</defs>
</svg>
