<svg width="40" height="40" viewBox="0 0 40 40" fill="none" xmlns="http://www.w3.org/2000/svg">
<rect width="40" height="40" rx="20" fill="url(#paint0_linear_15468_5094)"/>
<path d="M24.6872 7.58753C24.3444 7.24475 23.7886 7.24475 23.4459 7.58753L19.9581 11.0753L16.4704 7.58755C16.1276 7.24477 15.5719 7.24477 15.2291 7.58755C14.8863 7.93033 14.8863 8.48609 15.2291 8.82887L18.5802 12.18H14.5014C11.6482 12.18 9.31081 14.3888 9.1059 17.1897C10.0409 16.9488 11.236 16.9058 12.1516 16.8808C15.8384 16.9507 18.731 18.1177 21.1342 20.4874C22.0437 21.4002 22.6264 22.5017 22.7432 23.7891C22.863 25.2178 22.301 26.3655 21.251 27.3035C20.5279 27.9814 19.6169 28.356 18.7074 28.6846C18.536 28.7467 18.3685 28.8088 18.2027 28.8703C17.8049 29.0178 17.4165 29.1619 17.0052 29.2941C16.3599 29.4934 15.7526 29.788 15.2014 30.1646H25.4995C28.4874 30.1646 30.9096 27.7424 30.9096 24.7545V17.5901C30.9096 14.6022 28.4874 12.18 25.4995 12.18H21.336L24.6872 8.82885C25.03 8.48607 25.03 7.93031 24.6872 7.58753Z" fill="url(#paint1_linear_15468_5094)"/>
<path d="M24.6872 7.58753C24.3444 7.24475 23.7886 7.24475 23.4459 7.58753L19.9581 11.0753L16.4704 7.58755C16.1276 7.24477 15.5719 7.24477 15.2291 7.58755C14.8863 7.93033 14.8863 8.48609 15.2291 8.82887L18.5802 12.18H14.5014C11.6482 12.18 9.31081 14.3888 9.1059 17.1897C10.0409 16.9488 11.236 16.9058 12.1516 16.8808C15.8384 16.9507 18.731 18.1177 21.1342 20.4874C22.0437 21.4002 22.6264 22.5017 22.7432 23.7891C22.863 25.2178 22.301 26.3655 21.251 27.3035C20.5279 27.9814 19.6169 28.356 18.7074 28.6846C18.536 28.7467 18.3685 28.8088 18.2027 28.8703C17.8049 29.0178 17.4165 29.1619 17.0052 29.2941C16.3599 29.4934 15.7526 29.788 15.2014 30.1646H25.4995C28.4874 30.1646 30.9096 27.7424 30.9096 24.7545V17.5901C30.9096 14.6022 28.4874 12.18 25.4995 12.18H21.336L24.6872 8.82885C25.03 8.48607 25.03 7.93031 24.6872 7.58753Z" fill="white"/>
<path d="M13.7056 30.1065C14.3686 29.4654 15.1707 28.9753 16.109 28.6192C16.1525 28.6017 16.196 28.5841 16.2394 28.5666C16.7788 28.3493 17.3193 28.1316 17.8585 27.8922C18.7607 27.5167 19.5324 26.8816 20.0768 26.0667C20.292 25.7566 20.4369 25.4029 20.5013 25.0305C20.5657 24.658 20.548 24.2759 20.4495 23.9111C20.1996 22.9269 19.5932 22.1316 18.8227 21.4983C17.0259 19.9537 14.9259 19.2267 12.5464 19.1806C11.3661 19.1906 10.1972 19.4059 9.09131 19.8163V22.3601C9.86182 21.9569 10.7012 21.6985 11.5676 21.5988C13.8737 21.3178 15.9442 21.8799 17.6835 23.4813C17.9242 23.6873 18.1311 23.9297 18.2965 24.1996C18.8858 25.0427 18.8156 25.9795 18.0907 26.7066C17.7469 27.0391 17.359 27.3228 16.9376 27.5498C16.4272 27.84 15.8991 28.0983 15.3564 28.323C14.4939 28.7273 13.7205 29.2889 13.0738 29.9743C13.2798 30.0304 13.4906 30.0748 13.7056 30.1065Z" fill="url(#paint2_linear_15468_5094)"/>
<path d="M13.7056 30.1065C14.3686 29.4654 15.1707 28.9753 16.109 28.6192C16.1525 28.6017 16.196 28.5841 16.2394 28.5666C16.7788 28.3493 17.3193 28.1316 17.8585 27.8922C18.7607 27.5167 19.5324 26.8816 20.0768 26.0667C20.292 25.7566 20.4369 25.4029 20.5013 25.0305C20.5657 24.658 20.548 24.2759 20.4495 23.9111C20.1996 22.9269 19.5932 22.1316 18.8227 21.4983C17.0259 19.9537 14.9259 19.2267 12.5464 19.1806C11.3661 19.1906 10.1972 19.4059 9.09131 19.8163V22.3601C9.86182 21.9569 10.7012 21.6985 11.5676 21.5988C13.8737 21.3178 15.9442 21.8799 17.6835 23.4813C17.9242 23.6873 18.1311 23.9297 18.2965 24.1996C18.8858 25.0427 18.8156 25.9795 18.0907 26.7066C17.7469 27.0391 17.359 27.3228 16.9376 27.5498C16.4272 27.84 15.8991 28.0983 15.3564 28.323C14.4939 28.7273 13.7205 29.2889 13.0738 29.9743C13.2798 30.0304 13.4906 30.0748 13.7056 30.1065Z" fill="white"/>
<path d="M9.68097 27.2131C9.35164 26.5687 9.14772 25.8496 9.10141 25.0879C9.72519 24.5654 10.4649 24.1951 11.2618 24.0092C12.6521 23.7099 14.099 23.7649 15.3326 24.5713C15.6996 24.7969 16.0193 25.0913 16.2738 25.4382C16.7213 26.0479 16.6259 26.7037 16.0381 27.1959C15.7765 27.4179 15.4828 27.5993 15.167 27.7341C14.1119 28.2017 13.1784 28.8928 12.4282 29.7531C12.2589 29.6828 12.094 29.6042 11.934 29.5178C12.4413 28.9396 13.0259 28.4298 13.673 28.0031C13.8591 27.8712 14.0296 27.7192 14.1814 27.5498C14.5183 27.1931 14.5183 26.8123 14.1554 26.4784C13.9375 26.2694 13.684 26.1001 13.4065 25.9782C12.0305 25.4629 10.5145 26.0507 9.68097 27.2131Z" fill="url(#paint3_linear_15468_5094)"/>
<path d="M9.68097 27.2131C9.35164 26.5687 9.14772 25.8496 9.10141 25.0879C9.72519 24.5654 10.4649 24.1951 11.2618 24.0092C12.6521 23.7099 14.099 23.7649 15.3326 24.5713C15.6996 24.7969 16.0193 25.0913 16.2738 25.4382C16.7213 26.0479 16.6259 26.7037 16.0381 27.1959C15.7765 27.4179 15.4828 27.5993 15.167 27.7341C14.1119 28.2017 13.1784 28.8928 12.4282 29.7531C12.2589 29.6828 12.094 29.6042 11.934 29.5178C12.4413 28.9396 13.0259 28.4298 13.673 28.0031C13.8591 27.8712 14.0296 27.7192 14.1814 27.5498C14.5183 27.1931 14.5183 26.8123 14.1554 26.4784C13.9375 26.2694 13.684 26.1001 13.4065 25.9782C12.0305 25.4629 10.5145 26.0507 9.68097 27.2131Z" fill="white"/>
<defs>
<linearGradient id="paint0_linear_15468_5094" x1="4.16667" y1="4.16666" x2="36.2108" y2="36.2891" gradientUnits="userSpaceOnUse">
<stop stop-color="#00A3FF"/>
<stop offset="1" stop-color="#8F37FF"/>
</linearGradient>
<linearGradient id="paint1_linear_15468_5094" x1="11.364" y1="9.709" x2="29.6397" y2="27.2142" gradientUnits="userSpaceOnUse">
<stop stop-color="#00A3FF"/>
<stop offset="1" stop-color="#8F37FF"/>
</linearGradient>
<linearGradient id="paint2_linear_15468_5094" x1="11.364" y1="9.709" x2="29.6397" y2="27.2142" gradientUnits="userSpaceOnUse">
<stop stop-color="#00A3FF"/>
<stop offset="1" stop-color="#8F37FF"/>
</linearGradient>
<linearGradient id="paint3_linear_15468_5094" x1="11.364" y1="9.709" x2="29.6397" y2="27.2142" gradientUnits="userSpaceOnUse">
<stop stop-color="#00A3FF"/>
<stop offset="1" stop-color="#8F37FF"/>
</linearGradient>
</defs>
</svg>
