<svg width="40" height="40" viewBox="0 0 40 40" fill="none" xmlns="http://www.w3.org/2000/svg">
<rect width="40" height="40" rx="20" fill="url(#paint0_linear_15468_5087)"/>
<path d="M19.5814 7.19843C19.791 6.91905 20.2101 6.91904 20.4196 7.19843L21.877 9.14161C22.136 9.48695 21.8896 9.97977 21.4579 9.97977L18.5431 9.97977C18.1114 9.97977 17.865 9.48695 18.124 9.14161L19.5814 7.19843Z" fill="white"/>
<path d="M20.4196 32.8018C20.2101 33.0812 19.791 33.0812 19.5814 32.8018L18.124 30.8586C17.865 30.5133 18.1114 30.0205 18.5431 30.0205H21.4579C21.8896 30.0205 22.136 30.5133 21.877 30.8586L20.4196 32.8018Z" fill="white"/>
<path d="M13.7215 16.1966C13.6186 16.1966 13.5132 16.1983 13.4058 16.2019L13.4117 16.2009C14.1523 14.8888 15.272 13.8281 16.6258 13.1562C17.9795 12.4843 19.505 12.2321 21.0045 12.4324C22.504 12.6326 23.9085 13.2761 25.0361 14.2793C26.1637 15.2826 26.9624 16.5995 27.3287 18.0594C28.5052 18.2392 29.5699 18.8542 30.3099 19.7814C31.0498 20.7086 31.4103 21.8795 31.3193 23.0598C31.2282 24.2401 30.6922 25.3426 29.8187 26.1466C28.9451 26.9507 27.7985 27.3969 26.6082 27.3961H16.7411C17.1069 27.1868 17.4964 27.0172 17.9035 26.8914C18.2578 26.7775 18.5925 26.6534 18.9352 26.5263C19.0781 26.4733 19.2224 26.4198 19.3701 26.3663C20.1537 26.0832 20.9387 25.7605 21.5617 25.1764C22.4664 24.3682 22.9506 23.3794 22.8474 22.1486C22.7468 21.0394 22.2447 20.0903 21.4611 19.3039C19.3905 17.2622 16.8981 16.2568 13.7215 16.1966Z" fill="white"/>
<path d="M17.1313 26.3099C16.4209 26.5795 15.8011 26.9383 15.2736 27.3961H14.5938C15.1348 26.8423 15.7738 26.3867 16.4827 26.0545C16.9502 25.8608 17.4052 25.6383 17.845 25.3883C18.2081 25.1927 18.5424 24.9483 18.8385 24.6619C19.4632 24.0354 19.5236 23.2283 19.0159 22.5019C18.8734 22.2693 18.6951 22.0605 18.4877 21.8831C16.989 20.5033 15.2051 20.019 13.2181 20.2611C12.5094 20.3427 9.82898 20.7615 8.80733 23.0094C8.72351 22.6425 8.67633 22.2657 8.66797 21.8843C8.76032 18.5577 13.0663 18.1864 14.0617 18.178C16.1119 18.2177 17.9213 18.844 19.4695 20.1748C20.1333 20.7204 20.6558 21.4057 20.8711 22.2536C20.956 22.5679 20.9713 22.8971 20.9158 23.218C20.8603 23.5389 20.7354 23.8437 20.55 24.1108C20.081 24.8129 19.416 25.3601 18.6387 25.6836C18.174 25.8899 17.7083 26.0775 17.2435 26.2647L17.1313 26.3099Z" fill="white"/>
<path d="M10.1465 25.5587C10.2048 25.6223 10.2647 25.6846 10.3261 25.7457C10.5246 25.9432 10.7364 26.1245 10.9593 26.2887C11.3901 24.3934 13.3809 23.5029 14.8024 24.0351C15.0415 24.1402 15.2599 24.286 15.4476 24.4661C15.7603 24.7538 15.7603 25.0819 15.47 25.3891C15.3393 25.5351 15.1923 25.6661 15.032 25.7797C14.3919 26.2017 13.8228 26.7181 13.344 27.3097C13.5213 27.3409 13.7005 27.3638 13.8812 27.3782C14.5405 26.5943 15.3732 25.9664 16.3194 25.5471C16.5916 25.431 16.8446 25.2746 17.07 25.0834C17.5764 24.6593 17.6587 24.0943 17.2731 23.569C17.0538 23.2701 16.7784 23.0165 16.4621 22.8221C15.3992 22.1274 14.1525 22.08 12.9546 22.3379C12.1718 22.5205 10.5975 23.1504 10.1465 25.5587Z" fill="white"/>
<defs>
<linearGradient id="paint0_linear_15468_5087" x1="4.16667" y1="3.75" x2="39.4652" y2="32.2708" gradientUnits="userSpaceOnUse">
<stop stop-color="#FF9649"/>
<stop offset="1" stop-color="#FF426F"/>
</linearGradient>
</defs>
</svg>
