<svg width="24" height="24" viewBox="0 0 24 24" fill="none" xmlns="http://www.w3.org/2000/svg">
<path d="M11.4999 10C12.8806 10 13.9999 8.88071 13.9999 7.5C13.9999 6.11929 12.8806 5 11.4999 5C10.1191 5 8.99985 6.11929 8.99985 7.5C8.99985 8.88071 10.1191 10 11.4999 10Z" stroke="black" stroke-width="1.5" stroke-linecap="round" stroke-linejoin="round"/>
<path d="M16.9243 18.0034C17.008 18.5494 16.5518 19 15.9995 19C14.8106 19 13.9191 19 11.4999 19C9.08061 19 8.1891 19 7.0002 19C6.44791 19 5.99171 18.5494 6.07537 18.0034C6.51047 15.164 8.7735 13 11.4999 13C14.2262 13 16.4892 15.164 16.9243 18.0034Z" stroke="black" stroke-width="1.5" stroke-linecap="round" stroke-linejoin="round"/>
</svg>
