<svg width="24" height="24" viewBox="0 0 24 24" fill="none" xmlns="http://www.w3.org/2000/svg">
<path d="M11.5 16H18C19.1046 16 20 15.1046 20 14V13C20 11.8954 19.1046 11 18 11M18 11L18 10C18 6.68629 15.3137 4 12 4C8.68632 4 6.00003 6.68629 6.00003 10L6 11M18 11C18 9.89543 17.1046 9 16 9H8C6.89543 9 6 9.89543 6 11M6 11C4.89543 11 4 11.8954 4 13V14C4 14.6726 4.33201 15.2676 4.84108 15.6302C5.45814 16.0697 6.1918 16.4453 6.64238 17.0543C7.71542 18.5046 9.3932 19.5 12 19.5H14.5M11 15H13V16H11V15Z" stroke="black" stroke-width="1.5" stroke-linecap="round" stroke-linejoin="round"/>
</svg>
