<svg width="18" height="18" viewBox="0 0 18 18" fill="none" xmlns="http://www.w3.org/2000/svg">
<path d="M8.5 13H15C16.1046 13 17 12.1046 17 11V10C17 8.89543 16.1046 8 15 8M15 8L15 7C15 3.68629 12.3137 1 9.00003 1C5.68632 1 3.00003 3.68629 3.00003 7L3 8M15 8C15 6.89543 14.1046 6 13 6H5C3.89543 6 3 6.89543 3 8M3 8C1.89543 8 1 8.89543 1 10V11C1 11.6726 1.33201 12.2676 1.84108 12.6302C2.45814 13.0697 3.1918 13.4453 3.64238 14.0543C4.71542 15.5046 6.3932 16.5 9.00003 16.5H11.5M8 12H10V13H8V12Z" stroke="black" stroke-width="1.5" stroke-linecap="round" stroke-linejoin="round"/>
</svg>
