<svg width="24" height="24" viewBox="0 0 24 24" fill="none" xmlns="http://www.w3.org/2000/svg">
<path d="M14.4999 10C15.8806 10 16.9999 8.88071 16.9999 7.5C16.9999 6.11929 15.8806 5 14.4999 5M17.4999 19H18.9999C19.5521 19 20.0058 18.5506 19.9655 17.9998C19.7709 15.3364 18.7348 13.894 16.4999 13M11.9999 7.5C11.9999 8.88071 10.8806 10 9.49985 10C8.11914 10 6.99985 8.88071 6.99985 7.5C6.99985 6.11929 8.11914 5 9.49985 5C10.8806 5 11.9999 6.11929 11.9999 7.5ZM9.49985 19C11.9191 19 12.8106 19 13.9995 19C14.5518 19 15.008 18.5494 14.9243 18.0034C14.4892 15.164 12.2262 13 9.49985 13C6.7735 13 4.51047 15.164 4.07537 18.0034C3.99171 18.5494 4.44791 19 5.0002 19C6.1891 19 7.08061 19 9.49985 19Z" stroke="black" stroke-width="1.5" stroke-linecap="round" stroke-linejoin="round"/>
</svg>
