<svg width="18" height="16" viewBox="0 0 18 16" fill="none" xmlns="http://www.w3.org/2000/svg">
<path d="M11.4999 6C12.8806 6 13.9999 4.88071 13.9999 3.5C13.9999 2.11929 12.8806 1 11.4999 1M14.4999 15H15.9999C16.5521 15 17.0058 14.5506 16.9655 13.9998C16.7709 11.3364 15.7348 9.89398 13.4999 9M8.99985 3.5C8.99985 4.88071 7.88056 6 6.49985 6C5.11914 6 3.99985 4.88071 3.99985 3.5C3.99985 2.11929 5.11914 1 6.49985 1C7.88056 1 8.99985 2.11929 8.99985 3.5ZM6.49985 15C8.9191 15 9.81061 15 10.9995 15C11.5518 15 12.008 14.5494 11.9243 14.0034C11.4892 11.164 9.2262 9 6.49985 9C3.7735 9 1.51047 11.164 1.07537 14.0034C0.991715 14.5494 1.44791 15 2.0002 15C3.1891 15 4.08061 15 6.49985 15Z" stroke="black" stroke-width="1.5" stroke-linecap="round" stroke-linejoin="round"/>
</svg>
