<svg width="16" height="16" viewBox="0 0 16 16" fill="none" xmlns="http://www.w3.org/2000/svg">
<path fill-rule="evenodd" clip-rule="evenodd" d="M1.5 2.5C1.5 1.94771 1.94771 1.5 2.5 1.5H11.25C11.9404 1.5 12.5 2.05964 12.5 2.75V3.5H2.5C1.94771 3.5 1.5 3.05229 1.5 2.5ZM14 2.75V3.5H15.25C15.6642 3.5 16 3.83579 16 4.25V13.25C16 14.7688 14.7688 16 13.25 16H2.75C1.23122 16 0 14.7688 0 13.25V2.75C0 2.72012 0.00174707 2.69065 0.00514462 2.66169C0.00173228 2.60823 0 2.55432 0 2.5C0 1.11929 1.11929 0 2.5 0H11.25C12.7688 0 14 1.23122 14 2.75ZM1.5 4.79198V13.25C1.5 13.9404 2.05964 14.5 2.75 14.5H13.25C13.9404 14.5 14.5 13.9404 14.5 13.25V5H13.25H2.5C2.14445 5 1.80623 4.92578 1.5 4.79198ZM11 9C11 8.44776 11.4478 8 12 8C12.5522 8 13 8.44776 13 9C13 9.55224 12.5522 10 12 10C11.4478 10 11 9.55224 11 9Z" fill="black"/>
</svg>
