<svg width="40" height="40" viewBox="0 0 40 40" fill="none" xmlns="http://www.w3.org/2000/svg">
<rect width="40" height="40" rx="20" fill="url(#paint0_linear_15571_5266)"/>
<path d="M8.44059 18.1863H6.71484V21.8129H8.44059V18.1863Z" fill="#0F0F0F"/>
<path d="M10.2931 13.3999H8.68318V26.5516H10.2931V13.3999Z" fill="#0F0F0F"/>
<path d="M12.146 11.2299H10.6518V22.3956H12.146V11.2299Z" fill="#0F0F0F"/>
<path d="M13.998 9.75696H12.6251V19.6923H13.998V9.75696Z" fill="#0F0F0F"/>
<path d="M15.8508 8.77463H14.5937V18.2512H15.8508V8.77463Z" fill="#0F0F0F"/>
<path d="M17.7034 8.16507H16.5621V17.3988H17.7034V8.16507Z" fill="#0F0F0F"/>
<path d="M19.5561 7.84094H18.5306V17.0099H19.5561V7.84094Z" fill="#0F0F0F"/>
<path d="M21.4083 7.84094H20.4986V17.0099H21.4083V7.84094Z" fill="#0F0F0F"/>
<path d="M23.2665 8.16507H22.4726V17.3988H23.2665V8.16507Z" fill="#0F0F0F"/>
<path d="M25.1191 8.77463H24.441V18.2512H25.1191V8.77463Z" fill="#0F0F0F"/>
<path d="M26.9662 9.75696H26.4093V19.7354H26.9662V9.75696Z" fill="#0F0F0F"/>
<path d="M28.8187 11.2299H28.3776V17.6034H28.8187V11.2299Z" fill="#0F0F0F"/>
<path d="M33.2848 18.2514H31.559V21.7484H33.2848V18.2514Z" fill="#0F0F0F"/>
<path d="M31.316 13.4481H29.706V26.1249H31.316V13.4481Z" fill="#0F0F0F"/>
<path d="M29.3481 17.6037H27.854V28.7694H29.3481V17.6037Z" fill="#0F0F0F"/>
<path d="M27.3743 20.2642H26.0014V30.2427H27.3743V20.2642Z" fill="#0F0F0F"/>
<path d="M25.4057 21.7483H24.1486V31.2249H25.4057V21.7483Z" fill="#0F0F0F"/>
<path d="M23.4375 22.6009H22.2962V31.8347H23.4375V22.6009Z" fill="#0F0F0F"/>
<path d="M21.4692 22.9893H20.4437V32.1583H21.4692V22.9893Z" fill="#0F0F0F"/>
<path d="M19.5006 22.9893H18.5909V32.1583H19.5006V22.9893Z" fill="#0F0F0F"/>
<path d="M17.5326 22.6009H16.7386V31.8347H17.5326V22.6009Z" fill="#0F0F0F"/>
<path d="M15.5645 21.7483H14.8863V31.2249H15.5645V21.7483Z" fill="#0F0F0F"/>
<path d="M13.5901 20.2642H13.0333V30.2427H13.5901V20.2642Z" fill="#0F0F0F"/>
<path d="M11.622 22.3958H11.1809V28.7693H11.622V22.3958Z" fill="#0F0F0F"/>
<defs>
<linearGradient id="paint0_linear_15571_5266" x1="20" y1="0" x2="20" y2="40" gradientUnits="userSpaceOnUse">
<stop stop-color="#FFC98A"/>
<stop offset="1" stop-color="#EAA658"/>
</linearGradient>
</defs>
</svg>
