<svg width="20" height="15" viewBox="0 0 20 15" fill="none" xmlns="http://www.w3.org/2000/svg">
<path d="M9.5 11H13.5M3.5 6V2C3.5 1.44772 3.94772 1 4.5 1H7.85013C8.24532 1 8.60344 1.23273 8.76394 1.59386L10.2361 4.90614C10.3966 5.26727 10.7547 5.5 11.1499 5.5H16C16.5523 5.5 17 5.94772 17 6.5V9M13.5 3V2C13.5 1.44772 13.9477 1 14.5 1H15.5M5.5 9.99292V10.0071M9.5 10C9.5 12.2091 7.70914 14 5.5 14C3.29086 14 1.5 12.2091 1.5 10C1.5 7.79086 3.29086 6 5.5 6C7.70914 6 9.5 7.79086 9.5 10ZM18.5 11.5C18.5 12.8807 17.3807 14 16 14C14.6193 14 13.5 12.8807 13.5 11.5C13.5 10.1193 14.6193 9 16 9C17.3807 9 18.5 10.1193 18.5 11.5Z" stroke="black" stroke-width="1.5" stroke-linecap="round" stroke-linejoin="round"/>
</svg>
