<svg width="24" height="24" viewBox="0 0 24 24" fill="none" xmlns="http://www.w3.org/2000/svg">
<path d="M11.5 16H15.5M5.5 11V7C5.5 6.44772 5.94772 6 6.5 6H9.85013C10.2453 6 10.6034 6.23273 10.7639 6.59386L12.2361 9.90614C12.3966 10.2673 12.7547 10.5 13.1499 10.5H18C18.5523 10.5 19 10.9477 19 11.5V14M15.5 8V7C15.5 6.44772 15.9477 6 16.5 6H17.5M7.5 14.9929V15.0071M11.5 15C11.5 17.2091 9.70914 19 7.5 19C5.29086 19 3.5 17.2091 3.5 15C3.5 12.7909 5.29086 11 7.5 11C9.70914 11 11.5 12.7909 11.5 15ZM20.5 16.5C20.5 17.8807 19.3807 19 18 19C16.6193 19 15.5 17.8807 15.5 16.5C15.5 15.1193 16.6193 14 18 14C19.3807 14 20.5 15.1193 20.5 16.5Z" stroke="black" stroke-width="1.5" stroke-linecap="round" stroke-linejoin="round"/>
</svg>
