<svg width="400" height="400" viewBox="0 0 400 400" fill="none" xmlns="http://www.w3.org/2000/svg">
<g filter="url(#filter0_f_172_5198)">
<path d="M42.0655 25.126C42.0655 34.6115 34.3761 42.301 24.8906 42.301C15.4052 42.301 7.7157 34.6115 7.7157 25.126C7.7157 15.6406 15.4052 7.95112 24.8906 7.95112C34.3761 7.95112 42.0655 15.6406 42.0655 25.126Z" fill="url(#paint0_linear_172_5198)"/>
</g>
<path fill-rule="evenodd" clip-rule="evenodd" d="M39.5926 14.745C39.5926 17.1471 37.6453 19.0943 35.2433 19.0943C32.8413 19.0943 30.894 17.1471 30.894 14.745C30.894 12.343 32.8413 10.3958 35.2433 10.3958C37.6453 10.3958 39.5926 12.343 39.5926 14.745ZM29.3916 14.8008C29.3916 18.0332 32.011 20.6526 35.2435 20.5969C36.2466 20.5969 37.1941 20.374 38.0301 19.8724C38.6431 21.4329 38.9775 23.1606 38.9775 24.944C39.0332 32.6908 32.7913 38.9328 25.0445 38.9885C17.2977 39.0442 11 32.8022 11 25.0555C11 17.3087 17.242 11.011 24.9888 11.011C26.7722 11.011 28.4999 11.3454 30.1161 11.9584C29.6703 12.7944 29.3916 13.7976 29.3916 14.8008Z" fill="black"/>
<defs>
<filter id="filter0_f_172_5198" x="0.715698" y="0.951117" width="400" height="400" filterUnits="userSpaceOnUse" color-interpolation-filters="sRGB">
<feFlood flood-opacity="0" result="BackgroundImageFix"/>
<feBlend mode="normal" in="SourceGraphic" in2="BackgroundImageFix" result="shape"/>
<feGaussianBlur stdDeviation="3.5" result="effect1_foregroundBlur_172_5198"/>
</filter>
<linearGradient id="paint0_linear_172_5198" x1="12.2851" y1="14.0787" x2="36.0911" y2="37.8846" gradientUnits="userSpaceOnUse">
<stop stop-color="#BCEB00"/>
<stop offset="1" stop-color="#00EAEA"/>
</linearGradient>
</defs>
</svg>
