<svg width="564" height="564" viewBox="0 0 564 564" fill="none" xmlns="http://www.w3.org/2000/svg">
<g filter="url(#filter0_f_304_207)">
<path d="M482 281.999C482 392.457 392.458 482 282 482C171.543 482 82 392.457 82 281.999C82 171.543 171.543 82 282 82C392.458 82 482 171.543 482 281.999Z" fill="url(#paint0_linear_304_207)"/>
</g>
<path fill-rule="evenodd" clip-rule="evenodd" d="M453.204 161.116C453.204 189.088 430.527 211.763 402.556 211.763C374.585 211.763 351.909 189.088 351.909 161.116C351.909 133.145 374.585 110.47 402.556 110.47C430.527 110.47 453.204 133.145 453.204 161.116ZM334.414 161.766C334.414 199.407 364.917 229.909 402.559 229.261C414.24 229.261 425.273 226.665 435.008 220.824C442.147 238.996 446.041 259.115 446.041 279.882C446.689 370.093 374.003 442.78 283.792 443.429C193.582 444.077 120.246 371.39 120.246 281.181C120.246 190.97 192.933 117.634 283.144 117.634C303.911 117.634 324.03 121.528 342.851 128.666C337.659 138.402 334.414 150.084 334.414 161.766Z" fill="black"/>
<defs>
<filter id="filter0_f_304_207" x="0.282104" y="0.282104" width="563.436" height="563.436" filterUnits="userSpaceOnUse" color-interpolation-filters="sRGB">
<feFlood flood-opacity="0" result="BackgroundImageFix"/>
<feBlend mode="normal" in="SourceGraphic" in2="BackgroundImageFix" result="shape"/>
<feGaussianBlur stdDeviation="40.8589" result="effect1_foregroundBlur_304_207"/>
</filter>
<linearGradient id="paint0_linear_304_207" x1="135.21" y1="153.355" x2="412.428" y2="430.572" gradientUnits="userSpaceOnUse">
<stop stop-color="#BCEB00"/>
<stop offset="1" stop-color="#00EAEA"/>
</linearGradient>
</defs>
</svg>
