<svg width="133" height="50" viewBox="0 0 133 50" fill="none" xmlns="http://www.w3.org/2000/svg">
<g filter="url(#filter0_f_172_5191)">
<path d="M42.0655 25.126C42.0655 34.6115 34.3761 42.301 24.8906 42.301C15.4052 42.301 7.7157 34.6115 7.7157 25.126C7.7157 15.6406 15.4052 7.95112 24.8906 7.95112C34.3761 7.95112 42.0655 15.6406 42.0655 25.126Z" fill="url(#paint0_linear_172_5191)"/>
</g>
<path fill-rule="evenodd" clip-rule="evenodd" d="M39.5926 14.745C39.5926 17.1471 37.6453 19.0943 35.2433 19.0943C32.8413 19.0943 30.894 17.1471 30.894 14.745C30.894 12.343 32.8413 10.3958 35.2433 10.3958C37.6453 10.3958 39.5926 12.343 39.5926 14.745ZM29.3916 14.8008C29.3916 18.0332 32.011 20.6526 35.2435 20.5969C36.2466 20.5969 37.1941 20.374 38.0301 19.8724C38.6431 21.4329 38.9775 23.1606 38.9775 24.944C39.0332 32.6908 32.7913 38.9328 25.0445 38.9885C17.2977 39.0442 11 32.8022 11 25.0555C11 17.3087 17.242 11.011 24.9888 11.011C26.7722 11.011 28.4999 11.3454 30.1161 11.9584C29.6703 12.7944 29.3916 13.7976 29.3916 14.8008Z" fill="black"/>
<path d="M57.6624 29.6049C59.8839 29.6049 61.4708 28.9012 62.3263 27.2177C62.754 26.3622 62.961 25.2722 62.961 23.8923V19.4906H60.5325V23.8233C60.5325 25.6309 60.1323 26.6244 59.2768 27.0522C58.8491 27.2729 58.3385 27.3833 57.69 27.3833C56.4205 27.3833 55.5512 26.9694 55.1097 25.9345C54.8889 25.4101 54.7785 24.7064 54.7785 23.8233V19.4906H52.35V23.8923C52.35 26.6658 53.1641 28.2802 54.7509 29.0391C55.5512 29.4117 56.5033 29.6049 57.6624 29.6049Z" fill="black"/>
<path d="M67.0537 29.3289V25.8241C67.0537 23.9613 67.8402 23.0092 69.6754 23.0092C71.4278 23.0092 72.0073 23.9475 72.0073 25.5619V29.3289H74.3807V24.9962C74.3807 23.4094 73.7459 22.2365 72.5869 21.6018C71.9935 21.2706 71.2898 21.1188 70.4619 21.1188C68.7233 21.1188 67.5366 21.8915 66.9019 23.1334L66.7087 21.4086H64.6665V29.3289H67.0537Z" fill="black"/>
<path d="M77.4168 20.1943C78.4378 20.1943 78.9346 19.7666 78.9346 18.7731C78.9346 17.7382 78.3964 17.3794 77.4168 17.3794C76.4509 17.3794 75.8989 17.7382 75.8989 18.7731C75.8989 19.8494 76.3405 20.1943 77.4168 20.1943ZM76.1611 29.3289H78.5758V21.4086H76.1611V29.3289Z" fill="black"/>
<path d="M83.7722 29.3289H85.9938L90.5335 21.4086H87.9118L84.9451 26.9556L82.0612 21.4086H79.4671L83.7722 29.3289Z" fill="black"/>
<path d="M101.002 26.9694H98.422C98.0357 27.5075 97.3458 27.7835 95.8969 27.7835C93.9789 27.7835 93.0958 27.2453 92.8198 26.2105H101.099V25.3687C101.099 23.5887 100.257 22.3193 98.698 21.6294C97.8977 21.2844 96.987 21.1188 95.8831 21.1188C93.5098 21.1188 91.9781 21.9881 91.1778 23.3404C90.7915 24.0027 90.5983 24.7202 90.5983 25.5205C90.5983 27.135 91.1916 28.3768 92.6957 29.0805C93.4546 29.4117 94.4481 29.5911 95.7037 29.5911C98.3254 29.5911 100.147 28.9288 101.002 26.9694ZM95.9521 22.9126C97.6493 22.9126 98.5186 23.3818 98.7808 24.5408H92.875C93.2062 23.506 94.1997 22.9126 95.9521 22.9126Z" fill="black"/>
<path d="M102.518 29.3289H104.905V26.7072C104.905 25.148 105.195 24.2925 106.078 23.9061C106.52 23.6991 107.154 23.6163 107.982 23.6163H109.045V21.3258H108.037C106.202 21.3258 105.236 22.1951 104.809 23.6163L104.546 21.4086H102.518V29.3289Z" fill="black"/>
<path d="M115.184 29.5911C118.275 29.5911 119.848 28.432 119.848 26.8452C119.848 26.0173 119.613 25.4515 118.923 25.079C118.261 24.6926 117.116 24.4994 115.308 24.4305C113.983 24.3753 113.238 24.3063 112.852 24.1959C112.466 24.0717 112.397 23.9061 112.397 23.6715C112.397 23.3818 112.604 23.1058 113.211 22.9402C113.528 22.8436 113.956 22.816 114.535 22.816C116.012 22.816 116.978 23.0644 117.198 23.8785H119.737C119.158 21.9605 117.543 21.1188 114.563 21.1188C112.548 21.1188 111.265 21.6294 110.617 22.4573C110.285 22.8574 110.134 23.3266 110.134 23.8647C110.134 25.4377 111.362 26.0863 114.508 26.1829C115.832 26.2243 116.619 26.2794 117.019 26.3898C117.419 26.4864 117.53 26.6382 117.53 26.9004C117.53 27.4523 117.033 27.7973 115.308 27.7973C113.473 27.7973 112.797 27.4799 112.535 26.7072H109.844C110.244 28.6666 111.927 29.5911 115.184 29.5911Z" fill="black"/>
<path d="M131.389 26.9694H128.808C128.422 27.5075 127.732 27.7835 126.283 27.7835C124.365 27.7835 123.482 27.2453 123.206 26.2105H131.485V25.3687C131.485 23.5887 130.644 22.3193 129.084 21.6294C128.284 21.2844 127.373 21.1188 126.269 21.1188C123.896 21.1188 122.364 21.9881 121.564 23.3404C121.178 24.0027 120.985 24.7202 120.985 25.5205C120.985 27.135 121.578 28.3768 123.082 29.0805C123.841 29.4117 124.834 29.5911 126.09 29.5911C128.712 29.5911 130.533 28.9288 131.389 26.9694ZM126.338 22.9126C128.036 22.9126 128.905 23.3818 129.167 24.5408H123.261C123.593 23.506 124.586 22.9126 126.338 22.9126Z" fill="black"/>
<defs>
<filter id="filter0_f_172_5191" x="0.715698" y="0.951117" width="48.3499" height="48.3498" filterUnits="userSpaceOnUse" color-interpolation-filters="sRGB">
<feFlood flood-opacity="0" result="BackgroundImageFix"/>
<feBlend mode="normal" in="SourceGraphic" in2="BackgroundImageFix" result="shape"/>
<feGaussianBlur stdDeviation="3.5" result="effect1_foregroundBlur_172_5191"/>
</filter>
<linearGradient id="paint0_linear_172_5191" x1="12.2851" y1="14.0787" x2="36.0911" y2="37.8846" gradientUnits="userSpaceOnUse">
<stop stop-color="#BCEB00"/>
<stop offset="1" stop-color="#00EAEA"/>
</linearGradient>
</defs>
</svg>
