<svg width="400" height="400" viewBox="0 0 400 400" fill="none" xmlns="http://www.w3.org/2000/svg">
<mask id="mask0_303_196" style="mask-type:alpha" maskUnits="userSpaceOnUse" x="0" y="0" width="400" height="400">
<path fill-rule="evenodd" clip-rule="evenodd" d="M200 400C310.459 400 400 310.459 400 200C400 89.5432 310.459 0 200 0C89.5432 0 0 89.5432 0 200C0 310.459 89.5432 400 200 400ZM285.455 163.309C258.517 163.773 236.689 141.944 236.689 115.007C236.689 106.647 239.011 98.2875 242.727 91.3209C229.258 86.2122 214.861 83.4254 199.999 83.4254C135.442 83.4254 83.4254 135.907 83.4254 200.463C83.4254 265.02 135.907 317.037 200.463 316.571C265.02 316.107 317.037 264.091 316.571 199.534C316.571 184.672 313.787 170.275 308.676 157.271C301.709 161.451 293.815 163.309 285.455 163.309ZM321.698 114.543C321.698 134.56 305.472 150.787 285.454 150.787C265.438 150.787 249.211 134.56 249.211 114.543C249.211 94.5264 265.438 78.2994 285.454 78.2994C305.472 78.2994 321.698 94.5264 321.698 114.543Z" fill="#C4C4C4"/>
</mask>
<g mask="url(#mask0_303_196)">
<g filter="url(#filter0_f_303_196)">
<path d="M342.213 201.051C342.213 280.097 278.135 344.177 199.09 344.177C120.044 344.177 55.9653 280.097 55.9653 201.051C55.9653 122.005 120.044 57.9263 199.09 57.9263C278.135 57.9263 342.213 122.005 342.213 201.051Z" fill="url(#paint0_linear_303_196)"/>
</g>
</g>
<defs>
<filter id="filter0_f_303_196" x="34.2043" y="36.1653" width="329.77" height="329.772" filterUnits="userSpaceOnUse" color-interpolation-filters="sRGB">
<feFlood flood-opacity="0" result="BackgroundImageFix"/>
<feBlend mode="normal" in="SourceGraphic" in2="BackgroundImageFix" result="shape"/>
<feGaussianBlur stdDeviation="10.8805" result="effect1_foregroundBlur_303_196"/>
</filter>
<linearGradient id="paint0_linear_303_196" x1="94.0439" y1="108.989" x2="292.427" y2="307.372" gradientUnits="userSpaceOnUse">
<stop stop-color="#BFEF00"/>
<stop offset="1" stop-color="#00EAEA"/>
</linearGradient>
</defs>
</svg>
