<svg width="132" height="388" viewBox="0 0 132 388" fill="none" xmlns="http://www.w3.org/2000/svg">
<g opacity="0.2">
<circle cx="129.752" cy="359.35" r="2.1992" transform="rotate(-180 129.752 359.35)" fill="url(#paint0_linear_225_19902)"/>
<circle cx="129.752" cy="384.86" r="2.1992" transform="rotate(-180 129.752 384.86)" fill="url(#paint1_linear_225_19902)"/>
<circle cx="104.242" cy="257.307" r="2.1992" transform="rotate(-180 104.242 257.307)" fill="url(#paint2_linear_225_19902)"/>
<circle cx="27.709" cy="257.307" r="2.1992" transform="rotate(-180 27.709 257.307)" fill="url(#paint3_linear_225_19902)"/>
<circle cx="104.242" cy="231.796" r="2.1992" transform="rotate(-180 104.242 231.796)" fill="url(#paint4_linear_225_19902)"/>
<circle cx="27.709" cy="231.796" r="2.1992" transform="rotate(-180 27.709 231.796)" fill="url(#paint5_linear_225_19902)"/>
<circle cx="104.242" cy="206.285" r="2.1992" transform="rotate(-180 104.242 206.285)" fill="url(#paint6_linear_225_19902)"/>
<circle cx="27.709" cy="206.285" r="2.1992" transform="rotate(-180 27.709 206.285)" fill="url(#paint7_linear_225_19902)"/>
<circle cx="104.242" cy="180.774" r="2.1992" transform="rotate(-180 104.242 180.774)" fill="url(#paint8_linear_225_19902)"/>
<circle cx="27.709" cy="180.774" r="2.1992" transform="rotate(-180 27.709 180.774)" fill="url(#paint9_linear_225_19902)"/>
<circle cx="104.242" cy="155.264" r="2.1992" transform="rotate(-180 104.242 155.264)" fill="url(#paint10_linear_225_19902)"/>
<circle cx="27.709" cy="155.264" r="2.1992" transform="rotate(-180 27.709 155.264)" fill="url(#paint11_linear_225_19902)"/>
<circle cx="104.242" cy="129.753" r="2.1992" transform="rotate(-180 104.242 129.753)" fill="url(#paint12_linear_225_19902)"/>
<circle cx="27.709" cy="129.753" r="2.1992" transform="rotate(-180 27.709 129.753)" fill="url(#paint13_linear_225_19902)"/>
<circle cx="104.242" cy="104.242" r="2.1992" transform="rotate(-180 104.242 104.242)" fill="url(#paint14_linear_225_19902)"/>
<circle cx="27.709" cy="104.242" r="2.1992" transform="rotate(-180 27.709 104.242)" fill="url(#paint15_linear_225_19902)"/>
<circle cx="104.242" cy="78.7315" r="2.1992" transform="rotate(-180 104.242 78.7315)" fill="url(#paint16_linear_225_19902)"/>
<circle cx="27.709" cy="78.7315" r="2.1992" transform="rotate(-180 27.709 78.7315)" fill="url(#paint17_linear_225_19902)"/>
<circle cx="104.242" cy="53.2207" r="2.1992" transform="rotate(-180 104.242 53.2207)" fill="url(#paint18_linear_225_19902)"/>
<circle cx="27.709" cy="53.2207" r="2.1992" transform="rotate(-180 27.709 53.2207)" fill="url(#paint19_linear_225_19902)"/>
<circle cx="104.242" cy="27.7099" r="2.1992" transform="rotate(-180 104.242 27.7099)" fill="url(#paint20_linear_225_19902)"/>
<circle cx="27.709" cy="27.7099" r="2.1992" transform="rotate(-180 27.709 27.7099)" fill="url(#paint21_linear_225_19902)"/>
<circle cx="104.242" cy="2.19923" r="2.1992" transform="rotate(-180 104.242 2.19923)" fill="url(#paint22_linear_225_19902)"/>
<circle cx="27.709" cy="2.19927" r="2.1992" transform="rotate(-180 27.709 2.19927)" fill="url(#paint23_linear_225_19902)"/>
<circle cx="104.242" cy="308.328" r="2.1992" transform="rotate(-180 104.242 308.328)" fill="url(#paint24_linear_225_19902)"/>
<circle cx="27.709" cy="308.328" r="2.1992" transform="rotate(-180 27.709 308.328)" fill="url(#paint25_linear_225_19902)"/>
<circle cx="104.242" cy="282.817" r="2.1992" transform="rotate(-180 104.242 282.817)" fill="url(#paint26_linear_225_19902)"/>
<circle cx="27.709" cy="282.817" r="2.1992" transform="rotate(-180 27.709 282.817)" fill="url(#paint27_linear_225_19902)"/>
<circle cx="104.242" cy="359.35" r="2.1992" transform="rotate(-180 104.242 359.35)" fill="url(#paint28_linear_225_19902)"/>
<circle cx="104.242" cy="384.86" r="2.1992" transform="rotate(-180 104.242 384.86)" fill="url(#paint29_linear_225_19902)"/>
<circle cx="27.709" cy="359.35" r="2.1992" transform="rotate(-180 27.709 359.35)" fill="url(#paint30_linear_225_19902)"/>
<circle cx="27.709" cy="384.86" r="2.1992" transform="rotate(-180 27.709 384.86)" fill="url(#paint31_linear_225_19902)"/>
<circle cx="78.7305" cy="206.285" r="2.1992" transform="rotate(-180 78.7305 206.285)" fill="url(#paint32_linear_225_19902)"/>
<circle cx="2.19924" cy="206.285" r="2.1992" transform="rotate(-180 2.19924 206.285)" fill="url(#paint33_linear_225_19902)"/>
<circle cx="78.7305" cy="104.242" r="2.1992" transform="rotate(-180 78.7305 104.242)" fill="url(#paint34_linear_225_19902)"/>
<circle cx="2.19924" cy="104.242" r="2.1992" transform="rotate(-180 2.19924 104.242)" fill="url(#paint35_linear_225_19902)"/>
<circle cx="2.19924" cy="2.19923" r="2.1992" transform="rotate(-180 2.19924 2.19923)" fill="url(#paint36_linear_225_19902)"/>
<circle cx="129.752" cy="308.328" r="2.1992" transform="rotate(-180 129.752 308.328)" fill="url(#paint37_linear_225_19902)"/>
<circle cx="129.752" cy="282.817" r="2.1992" transform="rotate(-180 129.752 282.817)" fill="url(#paint38_linear_225_19902)"/>
<circle cx="129.752" cy="257.307" r="2.1992" transform="rotate(-180 129.752 257.307)" fill="url(#paint39_linear_225_19902)"/>
<circle cx="129.752" cy="231.796" r="2.1992" transform="rotate(-180 129.752 231.796)" fill="url(#paint40_linear_225_19902)"/>
<circle cx="129.752" cy="206.285" r="2.1992" transform="rotate(-180 129.752 206.285)" fill="url(#paint41_linear_225_19902)"/>
<circle cx="129.752" cy="180.774" r="2.1992" transform="rotate(-180 129.752 180.774)" fill="url(#paint42_linear_225_19902)"/>
<circle cx="129.752" cy="155.264" r="2.1992" transform="rotate(-180 129.752 155.264)" fill="url(#paint43_linear_225_19902)"/>
<circle cx="129.752" cy="129.753" r="2.1992" transform="rotate(-180 129.752 129.753)" fill="url(#paint44_linear_225_19902)"/>
<circle cx="129.752" cy="104.242" r="2.1992" transform="rotate(-180 129.752 104.242)" fill="url(#paint45_linear_225_19902)"/>
<circle cx="129.752" cy="53.2207" r="2.1992" transform="rotate(-180 129.752 53.2207)" fill="url(#paint46_linear_225_19902)"/>
<circle cx="129.752" cy="27.7099" r="2.1992" transform="rotate(-180 129.752 27.7099)" fill="url(#paint47_linear_225_19902)"/>
<circle cx="129.752" cy="2.19927" r="2.1992" transform="rotate(-180 129.752 2.19927)" fill="url(#paint48_linear_225_19902)"/>
<circle cx="129.752" cy="333.839" r="2.1992" transform="rotate(-180 129.752 333.839)" fill="url(#paint49_linear_225_19902)"/>
<circle cx="104.242" cy="333.839" r="2.1992" transform="rotate(-180 104.242 333.839)" fill="url(#paint50_linear_225_19902)"/>
<circle cx="27.709" cy="333.839" r="2.1992" transform="rotate(-180 27.709 333.839)" fill="url(#paint51_linear_225_19902)"/>
<circle cx="53.2207" cy="333.839" r="2.1992" transform="rotate(-180 53.2207 333.839)" fill="url(#paint52_linear_225_19902)"/>
<circle cx="53.2207" cy="257.307" r="2.1992" transform="rotate(-180 53.2207 257.307)" fill="url(#paint53_linear_225_19902)"/>
<circle cx="53.2207" cy="231.796" r="2.1992" transform="rotate(-180 53.2207 231.796)" fill="url(#paint54_linear_225_19902)"/>
<circle cx="53.2207" cy="206.285" r="2.1992" transform="rotate(-180 53.2207 206.285)" fill="url(#paint55_linear_225_19902)"/>
<circle cx="53.2207" cy="180.774" r="2.1992" transform="rotate(-180 53.2207 180.774)" fill="url(#paint56_linear_225_19902)"/>
<circle cx="53.2207" cy="155.264" r="2.1992" transform="rotate(-180 53.2207 155.264)" fill="url(#paint57_linear_225_19902)"/>
<circle cx="53.2207" cy="129.753" r="2.1992" transform="rotate(-180 53.2207 129.753)" fill="url(#paint58_linear_225_19902)"/>
<circle cx="53.2207" cy="104.242" r="2.1992" transform="rotate(-180 53.2207 104.242)" fill="url(#paint59_linear_225_19902)"/>
<circle cx="53.2207" cy="78.7315" r="2.1992" transform="rotate(-180 53.2207 78.7315)" fill="url(#paint60_linear_225_19902)"/>
<circle cx="53.2207" cy="53.2207" r="2.1992" transform="rotate(-180 53.2207 53.2207)" fill="url(#paint61_linear_225_19902)"/>
<circle cx="53.2207" cy="27.7099" r="2.1992" transform="rotate(-180 53.2207 27.7099)" fill="url(#paint62_linear_225_19902)"/>
<circle cx="53.2207" cy="2.19923" r="2.1992" transform="rotate(-180 53.2207 2.19923)" fill="url(#paint63_linear_225_19902)"/>
<circle cx="53.2207" cy="308.328" r="2.1992" transform="rotate(-180 53.2207 308.328)" fill="url(#paint64_linear_225_19902)"/>
<circle cx="53.2207" cy="282.817" r="2.1992" transform="rotate(-180 53.2207 282.817)" fill="url(#paint65_linear_225_19902)"/>
<circle cx="53.2207" cy="359.35" r="2.1992" transform="rotate(-180 53.2207 359.35)" fill="url(#paint66_linear_225_19902)"/>
<circle cx="53.2207" cy="384.86" r="2.1992" transform="rotate(-180 53.2207 384.86)" fill="url(#paint67_linear_225_19902)"/>
</g>
<defs>
<linearGradient id="paint0_linear_225_19902" x1="128.138" y1="357.935" x2="131.186" y2="360.983" gradientUnits="userSpaceOnUse">
<stop stop-color="#BCEB00"/>
<stop offset="1" stop-color="#00EAEA"/>
</linearGradient>
<linearGradient id="paint1_linear_225_19902" x1="128.138" y1="383.446" x2="131.186" y2="386.494" gradientUnits="userSpaceOnUse">
<stop stop-color="#BCEB00"/>
<stop offset="1" stop-color="#00EAEA"/>
</linearGradient>
<linearGradient id="paint2_linear_225_19902" x1="102.628" y1="255.892" x2="105.676" y2="258.94" gradientUnits="userSpaceOnUse">
<stop stop-color="#BCEB00"/>
<stop offset="1" stop-color="#00EAEA"/>
</linearGradient>
<linearGradient id="paint3_linear_225_19902" x1="26.0949" y1="255.892" x2="29.1432" y2="258.94" gradientUnits="userSpaceOnUse">
<stop stop-color="#BCEB00"/>
<stop offset="1" stop-color="#00EAEA"/>
</linearGradient>
<linearGradient id="paint4_linear_225_19902" x1="102.628" y1="230.381" x2="105.676" y2="233.43" gradientUnits="userSpaceOnUse">
<stop stop-color="#BCEB00"/>
<stop offset="1" stop-color="#00EAEA"/>
</linearGradient>
<linearGradient id="paint5_linear_225_19902" x1="26.0949" y1="230.381" x2="29.1432" y2="233.43" gradientUnits="userSpaceOnUse">
<stop stop-color="#BCEB00"/>
<stop offset="1" stop-color="#00EAEA"/>
</linearGradient>
<linearGradient id="paint6_linear_225_19902" x1="102.628" y1="204.871" x2="105.676" y2="207.919" gradientUnits="userSpaceOnUse">
<stop stop-color="#BCEB00"/>
<stop offset="1" stop-color="#00EAEA"/>
</linearGradient>
<linearGradient id="paint7_linear_225_19902" x1="26.0949" y1="204.871" x2="29.1432" y2="207.919" gradientUnits="userSpaceOnUse">
<stop stop-color="#BCEB00"/>
<stop offset="1" stop-color="#00EAEA"/>
</linearGradient>
<linearGradient id="paint8_linear_225_19902" x1="102.628" y1="179.36" x2="105.676" y2="182.408" gradientUnits="userSpaceOnUse">
<stop stop-color="#BCEB00"/>
<stop offset="1" stop-color="#00EAEA"/>
</linearGradient>
<linearGradient id="paint9_linear_225_19902" x1="26.0949" y1="179.36" x2="29.1432" y2="182.408" gradientUnits="userSpaceOnUse">
<stop stop-color="#BCEB00"/>
<stop offset="1" stop-color="#00EAEA"/>
</linearGradient>
<linearGradient id="paint10_linear_225_19902" x1="102.628" y1="153.849" x2="105.676" y2="156.897" gradientUnits="userSpaceOnUse">
<stop stop-color="#BCEB00"/>
<stop offset="1" stop-color="#00EAEA"/>
</linearGradient>
<linearGradient id="paint11_linear_225_19902" x1="26.0949" y1="153.849" x2="29.1432" y2="156.897" gradientUnits="userSpaceOnUse">
<stop stop-color="#BCEB00"/>
<stop offset="1" stop-color="#00EAEA"/>
</linearGradient>
<linearGradient id="paint12_linear_225_19902" x1="102.628" y1="128.338" x2="105.676" y2="131.387" gradientUnits="userSpaceOnUse">
<stop stop-color="#BCEB00"/>
<stop offset="1" stop-color="#00EAEA"/>
</linearGradient>
<linearGradient id="paint13_linear_225_19902" x1="26.0949" y1="128.338" x2="29.1432" y2="131.387" gradientUnits="userSpaceOnUse">
<stop stop-color="#BCEB00"/>
<stop offset="1" stop-color="#00EAEA"/>
</linearGradient>
<linearGradient id="paint14_linear_225_19902" x1="102.628" y1="102.828" x2="105.676" y2="105.876" gradientUnits="userSpaceOnUse">
<stop stop-color="#BCEB00"/>
<stop offset="1" stop-color="#00EAEA"/>
</linearGradient>
<linearGradient id="paint15_linear_225_19902" x1="26.0949" y1="102.828" x2="29.1432" y2="105.876" gradientUnits="userSpaceOnUse">
<stop stop-color="#BCEB00"/>
<stop offset="1" stop-color="#00EAEA"/>
</linearGradient>
<linearGradient id="paint16_linear_225_19902" x1="102.628" y1="77.3169" x2="105.676" y2="80.3652" gradientUnits="userSpaceOnUse">
<stop stop-color="#BCEB00"/>
<stop offset="1" stop-color="#00EAEA"/>
</linearGradient>
<linearGradient id="paint17_linear_225_19902" x1="26.0949" y1="77.3169" x2="29.1432" y2="80.3652" gradientUnits="userSpaceOnUse">
<stop stop-color="#BCEB00"/>
<stop offset="1" stop-color="#00EAEA"/>
</linearGradient>
<linearGradient id="paint18_linear_225_19902" x1="102.628" y1="51.8061" x2="105.676" y2="54.8544" gradientUnits="userSpaceOnUse">
<stop stop-color="#BCEB00"/>
<stop offset="1" stop-color="#00EAEA"/>
</linearGradient>
<linearGradient id="paint19_linear_225_19902" x1="26.0949" y1="51.8062" x2="29.1432" y2="54.8545" gradientUnits="userSpaceOnUse">
<stop stop-color="#BCEB00"/>
<stop offset="1" stop-color="#00EAEA"/>
</linearGradient>
<linearGradient id="paint20_linear_225_19902" x1="102.628" y1="26.2953" x2="105.676" y2="29.3436" gradientUnits="userSpaceOnUse">
<stop stop-color="#BCEB00"/>
<stop offset="1" stop-color="#00EAEA"/>
</linearGradient>
<linearGradient id="paint21_linear_225_19902" x1="26.0949" y1="26.2953" x2="29.1432" y2="29.3436" gradientUnits="userSpaceOnUse">
<stop stop-color="#BCEB00"/>
<stop offset="1" stop-color="#00EAEA"/>
</linearGradient>
<linearGradient id="paint22_linear_225_19902" x1="102.628" y1="0.784648" x2="105.676" y2="3.83294" gradientUnits="userSpaceOnUse">
<stop stop-color="#BCEB00"/>
<stop offset="1" stop-color="#00EAEA"/>
</linearGradient>
<linearGradient id="paint23_linear_225_19902" x1="26.0949" y1="0.784678" x2="29.1432" y2="3.83297" gradientUnits="userSpaceOnUse">
<stop stop-color="#BCEB00"/>
<stop offset="1" stop-color="#00EAEA"/>
</linearGradient>
<linearGradient id="paint24_linear_225_19902" x1="102.628" y1="306.914" x2="105.676" y2="309.962" gradientUnits="userSpaceOnUse">
<stop stop-color="#BCEB00"/>
<stop offset="1" stop-color="#00EAEA"/>
</linearGradient>
<linearGradient id="paint25_linear_225_19902" x1="26.0949" y1="306.914" x2="29.1432" y2="309.962" gradientUnits="userSpaceOnUse">
<stop stop-color="#BCEB00"/>
<stop offset="1" stop-color="#00EAEA"/>
</linearGradient>
<linearGradient id="paint26_linear_225_19902" x1="102.628" y1="281.403" x2="105.676" y2="284.451" gradientUnits="userSpaceOnUse">
<stop stop-color="#BCEB00"/>
<stop offset="1" stop-color="#00EAEA"/>
</linearGradient>
<linearGradient id="paint27_linear_225_19902" x1="26.0949" y1="281.403" x2="29.1432" y2="284.451" gradientUnits="userSpaceOnUse">
<stop stop-color="#BCEB00"/>
<stop offset="1" stop-color="#00EAEA"/>
</linearGradient>
<linearGradient id="paint28_linear_225_19902" x1="102.628" y1="357.935" x2="105.676" y2="360.983" gradientUnits="userSpaceOnUse">
<stop stop-color="#BCEB00"/>
<stop offset="1" stop-color="#00EAEA"/>
</linearGradient>
<linearGradient id="paint29_linear_225_19902" x1="102.628" y1="383.446" x2="105.676" y2="386.494" gradientUnits="userSpaceOnUse">
<stop stop-color="#BCEB00"/>
<stop offset="1" stop-color="#00EAEA"/>
</linearGradient>
<linearGradient id="paint30_linear_225_19902" x1="26.0949" y1="357.935" x2="29.1432" y2="360.983" gradientUnits="userSpaceOnUse">
<stop stop-color="#BCEB00"/>
<stop offset="1" stop-color="#00EAEA"/>
</linearGradient>
<linearGradient id="paint31_linear_225_19902" x1="26.0949" y1="383.446" x2="29.1432" y2="386.494" gradientUnits="userSpaceOnUse">
<stop stop-color="#BCEB00"/>
<stop offset="1" stop-color="#00EAEA"/>
</linearGradient>
<linearGradient id="paint32_linear_225_19902" x1="77.1164" y1="204.871" x2="80.1647" y2="207.919" gradientUnits="userSpaceOnUse">
<stop stop-color="#BCEB00"/>
<stop offset="1" stop-color="#00EAEA"/>
</linearGradient>
<linearGradient id="paint33_linear_225_19902" x1="0.585135" y1="204.871" x2="3.63342" y2="207.919" gradientUnits="userSpaceOnUse">
<stop stop-color="#BCEB00"/>
<stop offset="1" stop-color="#00EAEA"/>
</linearGradient>
<linearGradient id="paint34_linear_225_19902" x1="77.1164" y1="102.828" x2="80.1647" y2="105.876" gradientUnits="userSpaceOnUse">
<stop stop-color="#BCEB00"/>
<stop offset="1" stop-color="#00EAEA"/>
</linearGradient>
<linearGradient id="paint35_linear_225_19902" x1="0.585135" y1="102.828" x2="3.63342" y2="105.876" gradientUnits="userSpaceOnUse">
<stop stop-color="#BCEB00"/>
<stop offset="1" stop-color="#00EAEA"/>
</linearGradient>
<linearGradient id="paint36_linear_225_19902" x1="0.585135" y1="0.784648" x2="3.63342" y2="3.83294" gradientUnits="userSpaceOnUse">
<stop stop-color="#BCEB00"/>
<stop offset="1" stop-color="#00EAEA"/>
</linearGradient>
<linearGradient id="paint37_linear_225_19902" x1="128.138" y1="306.914" x2="131.186" y2="309.962" gradientUnits="userSpaceOnUse">
<stop stop-color="#BCEB00"/>
<stop offset="1" stop-color="#00EAEA"/>
</linearGradient>
<linearGradient id="paint38_linear_225_19902" x1="128.138" y1="281.403" x2="131.186" y2="284.451" gradientUnits="userSpaceOnUse">
<stop stop-color="#BCEB00"/>
<stop offset="1" stop-color="#00EAEA"/>
</linearGradient>
<linearGradient id="paint39_linear_225_19902" x1="128.138" y1="255.892" x2="131.186" y2="258.94" gradientUnits="userSpaceOnUse">
<stop stop-color="#BCEB00"/>
<stop offset="1" stop-color="#00EAEA"/>
</linearGradient>
<linearGradient id="paint40_linear_225_19902" x1="128.138" y1="230.381" x2="131.186" y2="233.43" gradientUnits="userSpaceOnUse">
<stop stop-color="#BCEB00"/>
<stop offset="1" stop-color="#00EAEA"/>
</linearGradient>
<linearGradient id="paint41_linear_225_19902" x1="128.138" y1="204.871" x2="131.186" y2="207.919" gradientUnits="userSpaceOnUse">
<stop stop-color="#BCEB00"/>
<stop offset="1" stop-color="#00EAEA"/>
</linearGradient>
<linearGradient id="paint42_linear_225_19902" x1="128.138" y1="179.36" x2="131.186" y2="182.408" gradientUnits="userSpaceOnUse">
<stop stop-color="#BCEB00"/>
<stop offset="1" stop-color="#00EAEA"/>
</linearGradient>
<linearGradient id="paint43_linear_225_19902" x1="128.138" y1="153.849" x2="131.186" y2="156.897" gradientUnits="userSpaceOnUse">
<stop stop-color="#BCEB00"/>
<stop offset="1" stop-color="#00EAEA"/>
</linearGradient>
<linearGradient id="paint44_linear_225_19902" x1="128.138" y1="128.338" x2="131.186" y2="131.387" gradientUnits="userSpaceOnUse">
<stop stop-color="#BCEB00"/>
<stop offset="1" stop-color="#00EAEA"/>
</linearGradient>
<linearGradient id="paint45_linear_225_19902" x1="128.138" y1="102.828" x2="131.186" y2="105.876" gradientUnits="userSpaceOnUse">
<stop stop-color="#BCEB00"/>
<stop offset="1" stop-color="#00EAEA"/>
</linearGradient>
<linearGradient id="paint46_linear_225_19902" x1="128.138" y1="51.8062" x2="131.186" y2="54.8545" gradientUnits="userSpaceOnUse">
<stop stop-color="#BCEB00"/>
<stop offset="1" stop-color="#00EAEA"/>
</linearGradient>
<linearGradient id="paint47_linear_225_19902" x1="128.138" y1="26.2953" x2="131.186" y2="29.3436" gradientUnits="userSpaceOnUse">
<stop stop-color="#BCEB00"/>
<stop offset="1" stop-color="#00EAEA"/>
</linearGradient>
<linearGradient id="paint48_linear_225_19902" x1="128.138" y1="0.784678" x2="131.186" y2="3.83297" gradientUnits="userSpaceOnUse">
<stop stop-color="#BCEB00"/>
<stop offset="1" stop-color="#00EAEA"/>
</linearGradient>
<linearGradient id="paint49_linear_225_19902" x1="128.138" y1="332.424" x2="131.186" y2="335.473" gradientUnits="userSpaceOnUse">
<stop stop-color="#BCEB00"/>
<stop offset="1" stop-color="#00EAEA"/>
</linearGradient>
<linearGradient id="paint50_linear_225_19902" x1="102.628" y1="332.424" x2="105.676" y2="335.473" gradientUnits="userSpaceOnUse">
<stop stop-color="#BCEB00"/>
<stop offset="1" stop-color="#00EAEA"/>
</linearGradient>
<linearGradient id="paint51_linear_225_19902" x1="26.0949" y1="332.424" x2="29.1432" y2="335.473" gradientUnits="userSpaceOnUse">
<stop stop-color="#BCEB00"/>
<stop offset="1" stop-color="#00EAEA"/>
</linearGradient>
<linearGradient id="paint52_linear_225_19902" x1="51.6066" y1="332.424" x2="54.6549" y2="335.473" gradientUnits="userSpaceOnUse">
<stop stop-color="#BCEB00"/>
<stop offset="1" stop-color="#00EAEA"/>
</linearGradient>
<linearGradient id="paint53_linear_225_19902" x1="51.6066" y1="255.892" x2="54.6549" y2="258.94" gradientUnits="userSpaceOnUse">
<stop stop-color="#BCEB00"/>
<stop offset="1" stop-color="#00EAEA"/>
</linearGradient>
<linearGradient id="paint54_linear_225_19902" x1="51.6066" y1="230.381" x2="54.6549" y2="233.43" gradientUnits="userSpaceOnUse">
<stop stop-color="#BCEB00"/>
<stop offset="1" stop-color="#00EAEA"/>
</linearGradient>
<linearGradient id="paint55_linear_225_19902" x1="51.6066" y1="204.871" x2="54.6549" y2="207.919" gradientUnits="userSpaceOnUse">
<stop stop-color="#BCEB00"/>
<stop offset="1" stop-color="#00EAEA"/>
</linearGradient>
<linearGradient id="paint56_linear_225_19902" x1="51.6066" y1="179.36" x2="54.6549" y2="182.408" gradientUnits="userSpaceOnUse">
<stop stop-color="#BCEB00"/>
<stop offset="1" stop-color="#00EAEA"/>
</linearGradient>
<linearGradient id="paint57_linear_225_19902" x1="51.6066" y1="153.849" x2="54.6549" y2="156.897" gradientUnits="userSpaceOnUse">
<stop stop-color="#BCEB00"/>
<stop offset="1" stop-color="#00EAEA"/>
</linearGradient>
<linearGradient id="paint58_linear_225_19902" x1="51.6066" y1="128.338" x2="54.6549" y2="131.387" gradientUnits="userSpaceOnUse">
<stop stop-color="#BCEB00"/>
<stop offset="1" stop-color="#00EAEA"/>
</linearGradient>
<linearGradient id="paint59_linear_225_19902" x1="51.6066" y1="102.828" x2="54.6549" y2="105.876" gradientUnits="userSpaceOnUse">
<stop stop-color="#BCEB00"/>
<stop offset="1" stop-color="#00EAEA"/>
</linearGradient>
<linearGradient id="paint60_linear_225_19902" x1="51.6066" y1="77.3169" x2="54.6549" y2="80.3652" gradientUnits="userSpaceOnUse">
<stop stop-color="#BCEB00"/>
<stop offset="1" stop-color="#00EAEA"/>
</linearGradient>
<linearGradient id="paint61_linear_225_19902" x1="51.6066" y1="51.8061" x2="54.6549" y2="54.8544" gradientUnits="userSpaceOnUse">
<stop stop-color="#BCEB00"/>
<stop offset="1" stop-color="#00EAEA"/>
</linearGradient>
<linearGradient id="paint62_linear_225_19902" x1="51.6066" y1="26.2953" x2="54.6549" y2="29.3436" gradientUnits="userSpaceOnUse">
<stop stop-color="#BCEB00"/>
<stop offset="1" stop-color="#00EAEA"/>
</linearGradient>
<linearGradient id="paint63_linear_225_19902" x1="51.6066" y1="0.784648" x2="54.6549" y2="3.83294" gradientUnits="userSpaceOnUse">
<stop stop-color="#BCEB00"/>
<stop offset="1" stop-color="#00EAEA"/>
</linearGradient>
<linearGradient id="paint64_linear_225_19902" x1="51.6066" y1="306.914" x2="54.6549" y2="309.962" gradientUnits="userSpaceOnUse">
<stop stop-color="#BCEB00"/>
<stop offset="1" stop-color="#00EAEA"/>
</linearGradient>
<linearGradient id="paint65_linear_225_19902" x1="51.6066" y1="281.403" x2="54.6549" y2="284.451" gradientUnits="userSpaceOnUse">
<stop stop-color="#BCEB00"/>
<stop offset="1" stop-color="#00EAEA"/>
</linearGradient>
<linearGradient id="paint66_linear_225_19902" x1="51.6066" y1="357.935" x2="54.6549" y2="360.983" gradientUnits="userSpaceOnUse">
<stop stop-color="#BCEB00"/>
<stop offset="1" stop-color="#00EAEA"/>
</linearGradient>
<linearGradient id="paint67_linear_225_19902" x1="51.6066" y1="383.446" x2="54.6549" y2="386.494" gradientUnits="userSpaceOnUse">
<stop stop-color="#BCEB00"/>
<stop offset="1" stop-color="#00EAEA"/>
</linearGradient>
</defs>
</svg>
